<svg width="759" height="865" viewBox="0 0 759 865" fill="none" xmlns="http://www.w3.org/2000/svg">
<g filter="url(#filter0_d_169_1110)">
<path d="M379.5 781C198.627 781 52 697.719 52 594.986C52 492.253 198.627 408.972 379.5 408.972C560.373 408.972 707 492.253 707 594.986C707 697.719 560.373 781 379.5 781Z" fill="#2C2C2C"/>
<path d="M243.215 712.271L487.68 571.14C489.831 569.901 491.617 568.118 492.859 565.969C494.101 563.821 494.755 561.383 494.755 558.901C494.755 556.42 494.101 553.982 492.859 551.834C491.617 549.685 489.831 547.902 487.68 546.663L463.565 531.458C459.402 529.061 454.682 527.799 449.878 527.799C445.074 527.799 440.354 529.061 436.191 531.458L191.692 672.605C189.542 673.844 187.755 675.628 186.514 677.776C185.272 679.925 184.618 682.362 184.618 684.844C184.618 687.326 185.272 689.763 186.514 691.912C187.755 694.06 189.542 695.844 191.692 697.083L215.808 712.271C219.973 714.681 224.699 715.95 229.511 715.95C234.323 715.95 239.05 714.681 243.215 712.271Z" fill="#E0E0E0"/>
<path d="M614.924 583.603C585.625 583.603 561.873 569.966 561.873 553.144C561.873 536.321 585.625 522.684 614.924 522.684C644.224 522.684 667.976 536.321 667.976 553.144C667.976 569.966 644.224 583.603 614.924 583.603Z" fill="#E6E6E6"/>
<path d="M156.524 590.582L133.256 603.959C133.256 603.959 145.139 566.62 138.807 528.982C136.414 514.758 131.278 507.695 129.483 503.89C127.688 500.085 113.777 476.571 126.159 465.803C138.541 455.035 167.344 476.687 165.782 534.632C165.071 553.598 161.961 572.398 156.524 590.582Z" fill="#0897FF"/>
<path opacity="0.5" d="M156.524 590.582L133.256 603.959C133.256 603.959 145.139 566.62 138.807 528.982C136.414 514.758 131.278 507.695 129.483 503.89C127.688 500.085 113.777 476.571 126.159 465.803C138.541 455.035 167.344 476.687 165.782 534.632C165.071 553.598 161.961 572.398 156.524 590.582Z" fill="black"/>
<path d="M145.704 597.628C145.874 597.632 146.04 597.582 146.18 597.487C146.32 597.392 146.427 597.255 146.486 597.096C146.569 596.847 155.461 572.553 155.178 533.502C154.895 494.451 134.37 473.248 134.17 473.048C134.093 472.97 134.001 472.909 133.9 472.866C133.798 472.824 133.69 472.802 133.58 472.802C133.47 472.802 133.362 472.824 133.261 472.866C133.159 472.909 133.067 472.97 132.99 473.048C132.912 473.125 132.85 473.217 132.808 473.319C132.766 473.42 132.744 473.528 132.744 473.638C132.744 473.748 132.766 473.856 132.808 473.958C132.85 474.059 132.912 474.151 132.99 474.228C133.19 474.427 153.233 495 153.516 533.519C153.799 572.037 145.023 596.299 144.923 596.531C144.848 596.738 144.859 596.967 144.952 597.166C145.046 597.366 145.215 597.52 145.422 597.595C145.513 597.623 145.609 597.634 145.704 597.628Z" fill="white"/>
<path d="M146.818 596.299L115.007 614.578C111.693 616.537 107.761 617.175 103.997 616.365C100.233 615.555 96.9125 613.356 94.6974 610.207C92.5918 606.932 91.7035 603.021 92.1878 599.157C93.7168 582.639 100.897 578.834 92.1046 571.472C83.3126 564.111 81.019 563.596 81.5176 556.517C82.0162 549.438 86.8527 546.347 89.1462 543.555C91.4398 540.764 97.7887 534.914 93.4675 526.273C89.1463 517.632 83.2461 509.274 92.1878 505.452C97.5228 503.159 106.415 506.216 112.265 512.564C118.115 518.912 122.935 523.482 128.536 525.01C134.137 526.539 145.804 526.789 145.306 536.443C144.807 546.098 142.248 549.405 144.541 553.709C148.862 561.751 167.66 566.321 146.818 596.299Z" fill="#0897FF"/>
<path d="M131.095 606.136C131.302 606.13 131.5 606.049 131.653 605.908C131.805 605.768 131.902 605.578 131.926 605.372C131.926 604.807 136.813 547.776 97.589 509.822C97.4272 509.689 97.2209 509.621 97.0116 509.634C96.8022 509.646 96.6052 509.737 96.4601 509.888C96.315 510.04 96.2325 510.24 96.2292 510.45C96.2258 510.66 96.3019 510.863 96.4422 511.019C135.101 548.424 130.314 604.657 130.264 605.222C130.246 605.44 130.314 605.656 130.454 605.824C130.594 605.992 130.794 606.098 131.012 606.119L131.095 606.136Z" fill="white"/>
<path d="M124.797 557.049C125.006 557.049 125.208 556.971 125.362 556.829C125.516 556.688 125.611 556.493 125.628 556.284C125.976 551.865 127.221 547.562 129.287 543.64C131.353 539.717 134.196 536.256 137.644 533.469C137.734 533.406 137.81 533.326 137.869 533.233C137.928 533.14 137.968 533.037 137.986 532.929C138.005 532.82 138.002 532.71 137.977 532.603C137.953 532.496 137.907 532.395 137.843 532.305C137.782 532.216 137.703 532.14 137.612 532.081C137.521 532.023 137.419 531.983 137.312 531.965C137.205 531.946 137.096 531.949 136.99 531.973C136.884 531.998 136.785 532.043 136.697 532.106C133.022 535.019 129.994 538.664 127.802 542.809C125.611 546.953 124.304 551.508 123.966 556.185C123.947 556.407 124.017 556.627 124.16 556.798C124.303 556.97 124.508 557.077 124.73 557.098L124.797 557.049Z" fill="white"/>
<path d="M127.505 566.836C127.706 566.838 127.901 566.767 128.054 566.637C128.219 566.49 128.32 566.284 128.335 566.064C128.351 565.843 128.28 565.626 128.137 565.457C127.738 564.992 117.916 554.157 94.8967 557.032C94.6786 557.061 94.4809 557.175 94.347 557.35C94.213 557.524 94.1537 557.745 94.182 557.963C94.2111 558.182 94.3247 558.381 94.4986 558.517C94.6725 558.654 94.8929 558.717 95.1128 558.694C117.218 555.919 126.807 566.454 126.907 566.554C126.983 566.639 127.075 566.707 127.178 566.756C127.28 566.804 127.392 566.832 127.505 566.836Z" fill="white"/>
<path d="M250.661 695.404L465.659 571.29C480.833 562.532 493.132 539.035 493.132 518.812V58.513C493.132 38.2898 480.833 29.0007 465.659 37.758L250.661 161.873C235.486 170.63 223.187 194.127 223.187 214.35V674.649C223.187 694.856 235.486 704.162 250.661 695.404Z" fill="#455A64"/>
<path d="M225.897 147.399L440.912 23.2843C447.393 19.5455 453.343 19.1134 458.047 21.4066C458.623 21.6949 459.178 22.0225 459.709 22.387L483.808 36.3954C478.955 33.4874 472.606 33.7034 465.642 37.7248L250.644 161.839C235.47 170.597 223.171 194.094 223.171 214.317V674.616C223.171 685.318 226.611 692.895 232.096 696.484L208.313 682.642C202.246 679.418 198.34 671.525 198.34 660.209V199.91C198.34 179.653 210.722 156.156 225.897 147.399Z" fill="#37474F"/>
<path d="M223.187 214.317V674.616C223.187 685.318 226.628 692.895 232.112 696.484L208.312 682.642C202.246 679.418 198.34 671.525 198.34 660.209V199.91L223.104 214.284L223.187 214.317Z" fill="#263238"/>
<path d="M198.423 235.62L223.188 249.911V261.078L198.423 246.77V235.62Z" fill="#37474F"/>
<path d="M209.276 309.883C211.487 311.162 213.282 309.8 213.282 306.859V282.847C213.259 281.346 212.885 279.871 212.19 278.54C211.494 277.21 210.496 276.061 209.276 275.186C207.066 273.906 205.271 275.186 205.271 278.21V302.222C205.293 303.723 205.667 305.198 206.363 306.529C207.059 307.859 208.056 309.008 209.276 309.883Z" fill="#37474F"/>
<path d="M213.298 306.925V282.847C213.276 281.346 212.902 279.871 212.206 278.54C211.511 277.21 210.513 276.061 209.293 275.186C208.928 274.931 208.504 274.775 208.061 274.735C207.618 274.694 207.172 274.769 206.767 274.953L209.775 273.408C210.186 273.21 210.643 273.124 211.098 273.159C211.553 273.194 211.991 273.349 212.368 273.607C213.589 274.482 214.588 275.631 215.287 276.961C215.985 278.291 216.363 279.766 216.39 281.268V305.263C216.452 305.869 216.36 306.482 216.122 307.042C215.883 307.603 215.507 308.095 215.027 308.47L211.886 310.132C212.386 309.772 212.78 309.285 213.029 308.721C213.277 308.157 213.37 307.537 213.298 306.925Z" fill="#455A64"/>
<path d="M209.276 367.994C211.487 369.273 213.282 367.994 213.282 364.969V340.957C213.258 339.456 212.883 337.982 212.188 336.652C211.492 335.322 210.495 334.173 209.276 333.297C207.066 332.017 205.271 333.297 205.271 336.338V360.333C205.291 361.835 205.664 363.31 206.359 364.641C207.055 365.972 208.054 367.12 209.276 367.994Z" fill="#37474F"/>
<path d="M213.299 364.969V340.957C213.275 339.456 212.9 337.982 212.205 336.652C211.509 335.322 210.512 334.173 209.293 333.297C208.927 333.046 208.502 332.893 208.06 332.853C207.618 332.812 207.173 332.885 206.767 333.064L209.775 331.502C210.184 331.295 210.642 331.205 211.099 331.24C211.556 331.275 211.995 331.435 212.368 331.701C213.592 332.574 214.594 333.722 215.292 335.052C215.991 336.383 216.367 337.859 216.39 339.362V363.424C216.454 364.03 216.362 364.643 216.124 365.204C215.885 365.765 215.508 366.256 215.027 366.631L211.886 368.293C212.406 367.924 212.814 367.418 213.063 366.831C213.313 366.244 213.394 365.6 213.299 364.969Z" fill="#455A64"/>
<path d="M258.173 174.784L469.448 52.7801C470.33 52.2729 471.329 52.0051 472.346 52.0032C473.364 52.0013 474.364 52.2654 475.247 52.7693C476.131 53.2732 476.867 53.9994 477.384 54.8757C477.9 55.7521 478.178 56.7482 478.19 57.7653V518.812C478.19 534.2 467.271 553.094 453.942 560.788L247.852 679.817C246.874 680.38 245.766 680.675 244.639 680.674C243.511 680.673 242.404 680.376 241.427 679.812C240.451 679.248 239.64 678.437 239.075 677.461C238.511 676.485 238.213 675.378 238.212 674.25V209.398C238.129 196.702 247.137 181.132 258.173 174.784Z" fill="#0897FF"/>
<path opacity="0.9" d="M258.173 174.784L469.448 52.7801C470.33 52.2729 471.329 52.0051 472.346 52.0032C473.364 52.0013 474.364 52.2654 475.247 52.7693C476.131 53.2732 476.867 53.9994 477.384 54.8757C477.9 55.7521 478.178 56.7482 478.19 57.7653V518.812C478.19 534.2 467.271 553.094 453.942 560.788L247.852 679.817C246.874 680.38 245.766 680.675 244.639 680.674C243.511 680.673 242.404 680.376 241.427 679.812C240.451 679.248 239.64 678.437 239.075 677.461C238.511 676.485 238.213 675.378 238.212 674.25V209.398C238.129 196.702 247.137 181.132 258.173 174.784Z" fill="white"/>
<path d="M406.258 84.6354L402.984 98.4112L332.947 138.791L320.847 132.344L406.258 84.6354Z" fill="#455A64"/>
<path d="M385.666 97.9458C385.666 100.239 387.328 101.153 389.256 100.023C390.291 99.336 391.15 98.4158 391.765 97.3365C392.38 96.2571 392.733 95.0487 392.796 93.8081C392.796 91.5316 391.134 90.601 389.206 91.7476C388.171 92.431 387.312 93.3481 386.697 94.4248C386.082 95.5015 385.729 96.7076 385.666 97.9458Z" fill="#263238"/>
<path d="M338.481 127.109C338.864 127.106 339.241 127.009 339.578 126.827L375.345 106.886C375.85 106.589 376.219 106.107 376.373 105.542C376.527 104.978 376.454 104.375 376.17 103.863C375.886 103.351 375.413 102.97 374.852 102.802C374.291 102.635 373.686 102.693 373.167 102.964L337.384 122.905C336.949 123.147 336.607 123.526 336.411 123.984C336.216 124.441 336.178 124.951 336.303 125.432C336.429 125.914 336.711 126.34 337.105 126.643C337.499 126.947 337.984 127.111 338.481 127.109Z" fill="#263238"/>
<path d="M279.348 211.664C277.165 212.919 277.326 214.834 279.729 216.222C280.931 216.916 282.285 217.302 283.673 217.346C285.06 217.39 286.436 217.091 287.68 216.475C288.315 216.127 288.842 215.611 289.204 214.985C289.565 214.358 289.749 213.644 289.733 212.92L296.909 213.052C296.882 214.448 296.468 215.808 295.712 216.982C294.957 218.155 293.89 219.096 292.631 219.698C289.725 221.279 286.474 222.119 283.167 222.144C279.859 222.169 276.596 221.378 273.667 219.842C268.328 216.759 268.541 212.104 274.269 208.828C277.674 207.077 281.469 206.223 285.296 206.347L285.948 210.735C283.704 210.429 281.42 210.75 279.348 211.664Z" fill="#7400FF" fill-opacity="0.22"/>
<path d="M311.167 198.196C316.549 201.303 316.26 205.992 310.498 209.324C307.545 210.971 304.23 211.862 300.85 211.919C297.47 211.977 294.127 211.198 291.121 209.652C285.739 206.544 286.028 201.856 291.79 198.523C294.739 196.867 298.055 195.969 301.437 195.912C304.819 195.855 308.163 196.64 311.167 198.196ZM297.413 206.165C298.663 206.853 300.059 207.234 301.486 207.277C302.912 207.32 304.328 207.023 305.618 206.411C307.684 205.224 307.479 203.187 305.033 201.774C303.822 201.082 302.463 200.691 301.069 200.635C299.676 200.578 298.289 200.858 297.026 201.451C294.929 202.658 294.923 204.727 297.413 206.165Z" fill="#7400FF" fill-opacity="0.22"/>
<path d="M308.802 189.097L325.344 190.357L316.018 184.973L321.456 181.837L339.603 192.314L334.606 195.186L318.195 193.964L327.463 199.315L321.995 202.472L303.805 191.97L308.802 189.097Z" fill="#7400FF" fill-opacity="0.22"/>
<path d="M339.175 171.551L343.924 174.293L338.741 177.288L352.153 185.032L346.146 188.492L332.733 180.748L327.581 183.723L322.847 180.989L339.175 171.551Z" fill="#7400FF" fill-opacity="0.22"/>
<path d="M366.468 173.799L359.65 177.731L361.286 179.75L355.132 183.297L344.643 168.395L350.806 164.833L376.341 171.055L369.947 174.752L366.468 173.799ZM360.692 172.172L353.558 170.203L356.92 174.35L360.692 172.172Z" fill="#7400FF" fill-opacity="0.22"/>
<path d="M372.526 157.855C370.358 159.118 370.504 161.025 372.922 162.421C374.125 163.112 375.479 163.497 376.866 163.541C378.252 163.585 379.629 163.287 380.873 162.674C381.507 162.32 382.033 161.802 382.396 161.173C382.758 160.545 382.944 159.83 382.934 159.105L390.111 159.237C390.074 160.633 389.655 161.993 388.899 163.167C388.143 164.341 387.08 165.286 385.824 165.897C382.916 167.479 379.662 168.319 376.352 168.343C373.041 168.367 369.776 167.573 366.846 166.033C361.507 162.95 361.728 158.28 367.448 155.019C370.859 153.276 374.654 152.418 378.483 152.524L379.12 156.903C376.877 156.619 374.598 156.948 372.526 157.855Z" fill="#7400FF" fill-opacity="0.22"/>
<path d="M391.699 141.232L396.433 143.965L391.25 146.96L404.706 154.729L398.698 158.188L385.286 150.445L380.134 153.419L375.399 150.686L391.699 141.232Z" fill="#7400FF" fill-opacity="0.22"/>
<path d="M422.843 138.735C424.317 137.878 424.306 136.567 422.507 135.528L412.045 129.488L418.046 126.006L428.509 132.046C433.33 134.83 433.107 138.539 427.814 141.625C425.301 143.132 422.443 143.969 419.513 144.056C416.584 144.142 413.682 143.475 411.085 142.118L400.623 136.078L406.639 132.604L417.101 138.644C417.979 139.124 418.96 139.383 419.961 139.399C420.961 139.415 421.95 139.187 422.843 138.735Z" fill="#7400FF" fill-opacity="0.22"/>
<path d="M432.058 122.906C431.386 123.305 431.156 123.671 431.703 123.987C433.976 125.3 441.953 119.062 448.53 122.859C452.559 125.185 450.803 128.26 446.716 130.621C443.012 132.632 438.93 133.85 434.73 134.198L432.447 130.309C435.811 130.141 439.113 129.338 442.179 127.943C443.065 127.438 443.348 126.949 442.7 126.575C440.34 125.212 432.499 131.548 426.124 127.867C422.497 125.773 423.336 122.726 427.998 119.968C431.111 118.254 434.513 117.128 438.033 116.645L440.427 120.542C437.545 120.954 434.73 121.749 432.058 122.906Z" fill="#7400FF" fill-opacity="0.22"/>
<path d="M464.113 251.988C457.37 243.707 453.975 233.2 454.599 222.54C455.224 211.879 459.821 201.84 467.485 194.402C475.149 186.964 485.323 182.668 495.999 182.362C506.675 182.056 517.078 185.761 525.156 192.747C533.234 199.733 538.4 209.493 539.635 220.1C540.869 230.707 538.083 241.392 531.825 250.046C525.568 258.7 516.294 264.695 505.832 266.848C495.371 269.001 484.483 267.156 475.315 261.676L454.507 270.716L464.113 251.988Z" fill="#0897FF"/>
<path d="M464.113 251.988C457.37 243.707 453.975 233.2 454.599 222.54C455.224 211.879 459.821 201.84 467.485 194.402C475.149 186.964 485.323 182.668 495.999 182.362C506.675 182.056 517.078 185.761 525.156 192.747C533.234 199.733 538.4 209.493 539.635 220.1C540.869 230.707 538.083 241.392 531.825 250.046C525.568 258.7 516.294 264.695 505.832 266.848C495.371 269.001 484.483 267.156 475.315 261.676L454.507 270.716L464.113 251.988Z" fill="#270030"/>
<path d="M479.584 222.742C479.584 222.094 479.119 221.728 478.271 221.728C476.305 221.986 474.469 222.851 473.019 224.204L470.659 219.618C473.143 217.749 476.144 216.692 479.252 216.593C483.241 216.593 486.265 218.687 486.265 221.811C486.265 224.038 484.603 226.182 482.476 228.325L479.501 231.266H486.531V236.152H471.424V232.147L478.155 225.185C478.88 224.543 479.38 223.688 479.584 222.742Z" fill="#8201F0"/>
<path d="M498.83 216.876L494.242 227.876H496.121V224.171H501.904V227.876H504.098V232.413H501.904V236.152H496.121V232.413H487.894V228.292L492.88 216.876H498.83Z" fill="#8201F0"/>
<path d="M521.949 226.564V236.152H515.766V228.342C515.802 228.088 515.782 227.829 515.709 227.582C515.636 227.336 515.511 227.108 515.343 226.915C515.174 226.721 514.966 226.566 514.732 226.459C514.498 226.353 514.244 226.298 513.988 226.298C512.774 226.298 512.01 227.245 512.01 228.707V236.152H505.827V215.779H512.01V223.274C512.494 222.509 513.168 221.884 513.966 221.458C514.764 221.033 515.659 220.823 516.564 220.847C517.305 220.828 518.042 220.966 518.726 221.251C519.41 221.536 520.026 221.962 520.535 222.502C521.043 223.041 521.432 223.682 521.675 224.382C521.919 225.082 522.012 225.825 521.949 226.564Z" fill="#8201F0"/>
<path d="M269.076 380.972V587.442C269.072 589.777 269.684 592.072 270.85 594.095C272.015 596.119 273.694 597.8 275.715 598.969C277.737 600.138 280.031 600.754 282.367 600.755C284.703 600.756 286.997 600.142 289.02 598.974L400.242 534.765L419.953 523.399C426.741 519.475 432.38 513.838 436.305 507.052C440.231 500.266 442.307 492.569 442.324 484.73V278.244C442.328 275.908 441.716 273.613 440.55 271.59C439.385 269.566 437.706 267.885 435.685 266.716C433.663 265.547 431.369 264.931 429.033 264.93C426.697 264.929 424.403 265.544 422.38 266.711L291.413 342.303C284.623 346.221 278.984 351.857 275.062 358.645C271.141 365.433 269.077 373.133 269.076 380.972Z" fill="#4200FF"/>
<path opacity="0.5" d="M269.076 380.972V587.442C269.072 589.777 269.684 592.072 270.85 594.095C272.015 596.119 273.694 597.8 275.715 598.969C277.737 600.138 280.031 600.754 282.367 600.755C284.703 600.756 286.997 600.142 289.02 598.974L400.242 534.765L419.953 523.399C426.741 519.475 432.38 513.838 436.305 507.052C440.231 500.266 442.307 492.569 442.324 484.73V278.244C442.328 275.908 441.716 273.613 440.55 271.59C439.385 269.566 437.706 267.885 435.685 266.716C433.663 265.547 431.369 264.931 429.033 264.93C426.697 264.929 424.403 265.544 422.38 266.711L291.413 342.303C284.623 346.221 278.984 351.857 275.062 358.645C271.141 365.433 269.077 373.133 269.076 380.972Z" fill="white"/>
<path d="M333.146 503.142C333.146 503.142 312.321 537.673 327.362 576.607L400.292 534.765L333.146 503.142Z" fill="#263238"/>
<path d="M299.935 347.998C298.359 335.201 307.458 323.549 320.258 321.973C333.057 320.397 344.712 329.494 346.288 342.292C347.864 355.089 338.765 366.742 325.965 368.317C313.165 369.893 301.511 360.796 299.935 347.998Z" fill="black"/>
<path d="M322.991 279.656C322.991 279.656 315.828 268.024 313.634 268.871C311.44 269.719 315.063 280.803 315.063 280.803C315.063 280.803 304.227 283.063 306.238 285.788C308.249 288.513 321.495 287.865 321.495 287.865L322.991 279.656Z" fill="black"/>
<path d="M318.005 309.634C322.991 347.089 354.57 347.089 354.57 347.089L420.718 317.976C420.718 317.976 425.704 313.605 427.233 303.568C427.82 299.457 427.82 295.283 427.233 291.172C427.233 291.172 427.233 291.089 427.233 291.056C425.122 275.302 413.338 258.369 387.677 253.168C382.053 252.033 376.328 251.476 370.591 251.506C367.816 251.497 365.042 251.635 362.281 251.922C342.337 253.883 328.36 263.188 321.695 277.662C320.196 280.929 319.08 284.358 318.371 287.882C317.018 295.059 316.895 302.415 318.005 309.634Z" fill="black"/>
<path d="M476.811 382.085C476.811 382.085 500.295 381.271 509.336 404.153C509.336 404.153 499.364 410.883 486.284 404.153C473.204 397.423 476.811 382.085 476.811 382.085Z" fill="#0897FF"/>
<path opacity="0.5" d="M476.811 382.085C476.811 382.085 500.295 381.271 509.336 404.153C509.336 404.153 499.364 410.883 486.284 404.153C473.204 397.423 476.811 382.085 476.811 382.085Z" fill="black"/>
<path d="M477.476 393.102C477.476 393.102 484.124 364.222 487.631 363.873C491.137 363.524 491.819 372.68 491.536 377.848L499.846 359.967C500.11 359.412 500.485 358.916 500.947 358.511C501.41 358.105 501.951 357.799 502.536 357.611C503.122 357.422 503.739 357.356 504.352 357.415C504.964 357.475 505.557 357.659 506.096 357.957C514.406 362.527 528.981 376.419 498.251 410.767L477.476 393.102Z" fill="#CFA7A7"/>
<path d="M392.38 373.128L397.366 372.48C402.391 371.814 407.503 372.497 412.176 374.46C416.85 376.422 420.916 379.593 423.959 383.647L453.626 423.13L476.894 382.085C476.894 382.085 479.686 410.002 509.419 404.153L477.492 457.877C475.472 461.278 472.659 464.14 469.294 466.221C465.93 468.302 462.112 469.54 458.166 469.829C454.22 470.117 450.262 469.449 446.63 467.88C442.998 466.311 439.799 463.889 437.305 460.818L409.981 427.234L392.38 373.128Z" fill="#7400FF" fill-opacity="0.22"/>
<path d="M329.058 465.271C335.706 482.121 336.437 485.411 332.382 493.836C329.558 500.059 327.331 506.535 325.734 513.179C325.734 513.179 356.547 547.71 400.408 534.781L420.119 523.415C424.219 521.052 427.911 518.044 431.056 514.508L425.056 469.775C424.754 467.42 424.992 465.027 425.754 462.779L432.053 444.317C435.126 435.3 435.584 425.597 433.372 416.33C431.16 407.064 426.37 398.613 419.554 391.956L398.38 371.267L342.769 378.379L334.459 380.756C329.019 382.329 324.329 385.812 321.251 390.565C318.174 395.318 316.915 401.022 317.706 406.629C320.432 426.237 324.886 454.686 329.058 465.271Z" fill="#0897FF"/>
<path opacity="0.7" d="M329.058 465.271C335.706 482.121 336.437 485.411 332.382 493.836C329.558 500.059 327.331 506.535 325.734 513.179C325.734 513.179 356.547 547.71 400.408 534.781L420.119 523.415C424.219 521.052 427.911 518.044 431.056 514.508L425.056 469.775C424.754 467.42 424.992 465.027 425.754 462.779L432.053 444.317C435.126 435.3 435.584 425.597 433.372 416.33C431.16 407.064 426.37 398.613 419.554 391.956L398.38 371.267L342.769 378.379L334.459 380.756C329.019 382.329 324.329 385.812 321.251 390.565C318.174 395.318 316.915 401.022 317.706 406.629C320.432 426.237 324.886 454.686 329.058 465.271Z" fill="#02006A"/>
<path d="M362.597 414.937L373.733 405.449C374.912 404.44 376.334 403.757 377.858 403.465C379.383 403.174 380.957 403.285 382.425 403.787L395.887 408.423L397.699 400.879C397.981 399.706 398.499 398.601 399.22 397.633C399.941 396.665 400.851 395.852 401.895 395.245C402.939 394.638 404.095 394.249 405.293 394.1C406.491 393.952 407.707 394.048 408.868 394.382L414.701 396.044L404.829 377.133C401.605 370.974 396.64 365.9 390.552 362.543L386.68 360.416L354.686 362.078C354.686 362.078 342.769 367.063 342.769 378.28L362.597 414.838" fill="#7400FF" fill-opacity="0.22"/>
<path d="M354.553 376.252L386.63 401.245V321.665H354.553V376.252Z" fill="#CFA7A7"/>
<path d="M386.131 369.689L395.887 408.49L354.686 376.252L386.131 369.689Z" fill="#CFA7A7"/>
<path d="M386.63 363.922C379.497 361.274 372.977 357.204 367.466 351.96C361.955 346.715 357.567 340.405 354.57 333.413V321.665H386.646L386.63 363.922Z" fill="#703838"/>
<path d="M379.716 262.69C391.882 262.69 417.743 269.47 420.735 301.308C423.726 333.147 420.834 357.807 404.414 360.2C387.993 362.593 349.833 350.678 344.714 309.468C339.595 268.257 367.866 262.69 379.716 262.69Z" fill="#CFA7A7"/>
<path d="M398.862 314.785V333.546L409.865 330.173L398.862 314.785Z" fill="#703838"/>
<path d="M386.63 321.847C384.519 321.847 382.807 320.136 382.807 318.025C382.807 315.915 384.519 314.203 386.63 314.203C388.741 314.203 390.453 315.915 390.453 318.025C390.453 320.136 388.741 321.847 386.63 321.847Z" fill="#263238"/>
<path d="M407.97 315.367C407.973 316.122 408.2 316.859 408.622 317.485C409.044 318.112 409.642 318.599 410.341 318.886C411.04 319.173 411.808 319.246 412.549 319.097C413.289 318.947 413.969 318.582 414.501 318.047C415.034 317.512 415.397 316.83 415.543 316.09C415.689 315.349 415.612 314.581 415.323 313.884C415.033 313.186 414.543 312.59 413.915 312.171C413.286 311.752 412.548 311.528 411.793 311.528C411.289 311.528 410.791 311.627 410.326 311.821C409.861 312.014 409.439 312.297 409.084 312.653C408.729 313.01 408.447 313.433 408.256 313.899C408.065 314.365 407.968 314.863 407.97 315.367Z" fill="#263238"/>
<path d="M416.463 307.39L408.984 302.954C408.984 302.954 411.843 299.979 414.701 301.757C417.56 303.535 416.463 307.39 416.463 307.39Z" fill="#263238"/>
<path d="M404.031 341.157C400.389 341.423 396.764 340.45 393.743 338.398C393.743 338.398 393.029 343.832 397.583 344.862C402.137 345.893 404.031 341.157 404.031 341.157Z" fill="#703838"/>
<path d="M410.563 273.524C410.563 273.524 405.992 317.477 346.21 318.856C346.21 318.856 328.144 275.169 363.844 260.978C399.544 246.787 410.563 273.524 410.563 273.524Z" fill="black"/>
<path d="M328.609 312.276L335.955 308.022C338.747 306.36 342.603 306.593 346.874 309.052C355.351 313.938 362.231 325.852 362.231 335.64C362.231 340.542 360.569 343.948 357.711 345.61L350.498 349.764L350.082 349.997L349.833 350.147C347.107 351.476 343.467 351.16 339.462 348.85C330.986 343.865 324.105 332.05 324.105 322.263C324.155 317.311 325.867 313.888 328.609 312.276Z" fill="#0D08FF"/>
<path d="M328.667 337.305C322.673 326.925 322.673 315.705 328.667 312.246C334.661 308.786 344.379 314.395 350.373 324.775C356.367 335.155 356.367 346.375 350.373 349.835C344.379 353.295 334.661 347.685 328.667 337.305Z" fill="#0897FF"/>
<path opacity="0.5" d="M328.667 337.305C322.673 326.925 322.673 315.705 328.667 312.246C334.661 308.786 344.379 314.395 350.373 324.775C356.367 335.155 356.367 346.375 350.373 349.835C344.379 353.295 334.661 347.685 328.667 337.305Z" fill="#000AFF"/>
<path d="M325.667 321.498L330.653 318.59C332.548 317.46 335.191 317.61 338.116 319.288C341.171 321.285 343.714 323.972 345.539 327.133C347.364 330.294 348.419 333.84 348.62 337.484C348.62 340.808 347.44 343.184 345.528 344.281L340.542 347.122C340.454 347.187 340.359 347.243 340.26 347.288L340.093 347.388C338.925 347.831 337.665 347.981 336.425 347.825C335.185 347.668 334.002 347.21 332.98 346.491C329.927 344.496 327.385 341.811 325.56 338.653C323.736 335.495 322.679 331.953 322.476 328.312C322.609 324.938 323.772 322.595 325.667 321.498Z" fill="#7508FF"/>
<path d="M322.609 328.278C322.812 331.92 323.869 335.462 325.694 338.62C327.518 341.778 330.06 344.463 333.113 346.458C338.93 349.781 343.634 347.089 343.634 340.392C343.437 336.748 342.381 333.201 340.553 330.042C338.724 326.883 336.175 324.2 333.113 322.213C327.313 318.856 322.609 321.565 322.609 328.278Z" fill="#0812FF"/>
<path opacity="0.3" d="M322.609 328.278C322.812 331.92 323.869 335.462 325.694 338.62C327.518 341.778 330.06 344.463 333.113 346.458C338.93 349.781 343.634 347.089 343.634 340.392C343.437 336.748 342.381 333.201 340.553 330.042C338.724 326.883 336.175 324.2 333.113 322.213C327.313 318.856 322.609 321.565 322.609 328.278Z" fill="black"/>
<path d="M351.428 254.115C356.193 250.436 362.028 248.411 368.048 248.349H369.528C375.624 248.283 381.71 248.84 387.693 250.011C386.596 250.011 385.499 250.011 384.369 250.011H387.693V253.102H384.602C373.948 253.464 363.852 257.954 356.449 265.623C349.046 273.291 344.915 283.538 344.93 294.196V307.274C344.93 307.791 344.822 308.302 344.612 308.775C344.402 309.247 344.095 309.67 343.711 310.017C343.327 310.363 342.875 310.624 342.383 310.785C341.892 310.945 341.372 311 340.858 310.946H340.476L337.151 309.916C337.373 309.986 337.602 310.031 337.833 310.049C336.842 309.915 335.935 309.42 335.285 308.66C334.635 307.9 334.288 306.928 334.309 305.928V293.797C334.343 271.846 343.833 260.048 351.428 254.115Z" fill="#0812FF"/>
<path d="M372.353 359.286C373.724 359.286 375.079 358.992 376.326 358.422L386.713 353.62C386.876 353.562 387.024 353.47 387.15 353.352C387.275 353.233 387.375 353.09 387.442 352.931C387.509 352.772 387.542 352.601 387.54 352.429C387.538 352.256 387.499 352.086 387.428 351.929C387.356 351.772 387.253 351.632 387.124 351.517C386.995 351.402 386.844 351.315 386.68 351.261C386.516 351.208 386.343 351.189 386.171 351.206C385.999 351.223 385.833 351.275 385.683 351.36L375.295 356.162C373.97 356.778 372.486 356.965 371.05 356.697C369.614 356.429 368.297 355.719 367.284 354.667L357.312 344.364C357.078 344.13 356.762 343.999 356.431 343.999C356.101 343.999 355.784 344.13 355.55 344.364C355.321 344.6 355.192 344.916 355.192 345.245C355.192 345.573 355.321 345.889 355.55 346.125L365.522 356.428C366.41 357.339 367.473 358.062 368.646 358.553C369.82 359.044 371.081 359.294 372.353 359.286Z" fill="#0897FF"/>
<path opacity="0.5" d="M372.353 359.286C373.724 359.286 375.079 358.992 376.326 358.422L386.713 353.62C386.876 353.562 387.024 353.47 387.15 353.352C387.275 353.233 387.375 353.09 387.442 352.931C387.509 352.772 387.542 352.601 387.54 352.429C387.538 352.256 387.499 352.086 387.428 351.929C387.356 351.772 387.253 351.632 387.124 351.517C386.995 351.402 386.844 351.315 386.68 351.261C386.516 351.208 386.343 351.189 386.171 351.206C385.999 351.223 385.833 351.275 385.683 351.36L375.295 356.162C373.97 356.778 372.486 356.965 371.05 356.697C369.614 356.429 368.297 355.719 367.284 354.667L357.312 344.364C357.078 344.13 356.762 343.999 356.431 343.999C356.101 343.999 355.784 344.13 355.55 344.364C355.321 344.6 355.192 344.916 355.192 345.245C355.192 345.573 355.321 345.889 355.55 346.125L365.522 356.428C366.41 357.339 367.473 358.062 368.646 358.553C369.82 359.044 371.081 359.294 372.353 359.286Z" fill="#0B008E"/>
<path d="M383.987 350.13C383.987 351.09 384.272 352.028 384.805 352.826C385.338 353.624 386.096 354.246 386.983 354.613C387.87 354.98 388.846 355.076 389.787 354.889C390.728 354.702 391.593 354.24 392.272 353.561C392.951 352.883 393.413 352.018 393.6 351.077C393.787 350.135 393.691 349.16 393.324 348.273C392.957 347.387 392.335 346.629 391.537 346.096C390.738 345.562 389.8 345.278 388.84 345.278C387.553 345.278 386.319 345.789 385.409 346.699C384.499 347.609 383.987 348.843 383.987 350.13Z" fill="#0897FF"/>
<path opacity="0.5" d="M383.987 350.13C383.987 351.09 384.272 352.028 384.805 352.826C385.338 353.624 386.096 354.246 386.983 354.613C387.87 354.98 388.846 355.076 389.787 354.889C390.728 354.702 391.593 354.24 392.272 353.561C392.951 352.883 393.413 352.018 393.6 351.077C393.787 350.135 393.691 349.16 393.324 348.273C392.957 347.387 392.335 346.629 391.537 346.096C390.738 345.562 389.8 345.278 388.84 345.278C387.553 345.278 386.319 345.789 385.409 346.699C384.499 347.609 383.987 348.843 383.987 350.13Z" fill="#1400FF"/>
<path d="M334.343 293.797V305.928C334.321 306.928 334.669 307.9 335.319 308.66C335.968 309.42 336.875 309.915 337.866 310.049C338.414 310.107 338.967 310.05 339.491 309.88C340.015 309.71 340.497 309.432 340.906 309.064C341.315 308.696 341.642 308.245 341.866 307.742C342.09 307.239 342.205 306.695 342.204 306.144V293.797C342.195 287.905 343.378 282.071 345.682 276.648C347.986 271.224 351.364 266.323 355.612 262.238C359.86 258.154 364.891 254.971 370.401 252.881C375.912 250.791 381.788 249.837 387.677 250.077C381.694 248.907 375.607 248.35 369.511 248.416H368.065C362.045 248.478 356.209 250.502 351.445 254.182C343.833 260.048 334.343 271.846 334.343 293.797Z" fill="#1C08FF"/>
<path opacity="0.5" d="M334.343 293.797V305.928C334.321 306.928 334.669 307.9 335.319 308.66C335.968 309.42 336.875 309.915 337.866 310.049C338.414 310.107 338.967 310.05 339.491 309.88C340.015 309.71 340.497 309.432 340.906 309.064C341.315 308.696 341.642 308.245 341.866 307.742C342.09 307.239 342.205 306.695 342.204 306.144V293.797C342.195 287.905 343.378 282.071 345.682 276.648C347.986 271.224 351.364 266.323 355.612 262.238C359.86 258.154 364.891 254.971 370.401 252.881C375.912 250.791 381.788 249.837 387.677 250.077C381.694 248.907 375.607 248.35 369.511 248.416H368.065C362.045 248.478 356.209 250.502 351.445 254.182C343.833 260.048 334.343 271.846 334.343 293.797Z" fill="black"/>
<path d="M353.024 522.402C353.024 522.402 361.068 544.552 332.315 554.523C332.315 554.523 322.925 540.73 332.315 529.447C341.706 518.164 353.024 522.402 353.024 522.402Z" fill="#0897FF"/>
<path opacity="0.7" d="M353.024 522.402C353.024 522.402 361.068 544.552 332.315 554.523C332.315 554.523 322.925 540.73 332.315 529.447C341.706 518.164 353.024 522.402 353.024 522.402Z" fill="black"/>
<path d="M342.935 523.415C342.935 523.415 371.023 533.701 370.874 537.689C370.724 541.678 358.941 538.952 358.941 538.952L363.245 541.777C367.778 544.735 371.289 549.017 373.3 554.041C373.739 555.149 373.754 556.38 373.343 557.498C372.933 558.617 372.125 559.545 371.073 560.106L360.403 565.756C359.801 566.076 359.14 566.271 358.461 566.331C357.781 566.391 357.097 566.314 356.447 566.105C355.798 565.896 355.197 565.559 354.681 565.114C354.164 564.668 353.742 564.124 353.439 563.513C352.844 562.338 352.023 561.292 351.021 560.437C350.02 559.581 348.859 558.932 347.606 558.528C341.805 556.6 330.985 551.05 326.648 535.862L342.935 523.415Z" fill="#CFA7A7"/>
<path d="M334.509 380.722C334.509 380.722 349.467 389.031 341.523 414.256C333.578 439.481 318.67 478.615 318.67 478.615L353.024 522.402C349.354 522.844 345.818 524.056 342.648 525.957C339.478 527.858 336.744 530.406 334.625 533.435C332.596 536.516 331.328 540.034 330.926 543.7C330.525 547.367 331.001 551.076 332.315 554.523L289.668 499.686C285.724 494.618 283.105 488.647 282.049 482.314C280.993 475.98 281.532 469.483 283.618 463.41L301.9 410.035C304.135 403.515 307.849 397.601 312.75 392.755C317.652 387.909 323.609 384.263 330.155 382.102L334.509 380.722Z" fill="#7400FF" fill-opacity="0.22"/>
<path d="M587.002 231.715L653.101 193.495C653.861 192.968 654.741 192.639 655.661 192.537C656.581 192.436 657.512 192.565 658.369 192.914C658.55 192.997 658.722 193.097 658.885 193.213L673.261 201.638H673.161C674.973 202.668 676.12 205.061 676.12 208.484V281.999C676.12 288.214 672.347 295.442 667.677 298.134L601.578 336.354C600.74 336.961 599.741 337.308 598.707 337.352C597.673 337.396 596.649 337.136 595.761 336.604C595.806 336.621 595.846 336.65 595.878 336.687L581.601 328.378C579.739 327.381 578.559 324.955 578.559 321.482V247.851C578.559 241.636 582.266 234.407 587.002 231.715Z" fill="#08D3FF"/>
<path d="M580.919 238.678C582.257 235.834 584.364 233.422 587.002 231.715L653.101 193.495C653.861 192.968 654.741 192.639 655.661 192.537C656.581 192.436 657.512 192.565 658.369 192.914C658.55 192.997 658.723 193.097 658.885 193.213L673.261 201.638C672.382 201.188 671.395 200.989 670.411 201.063C669.426 201.136 668.48 201.479 667.677 202.053L601.578 240.273C598.85 242.056 596.688 244.582 595.346 247.551L580.919 238.678Z" fill="#086BFF" fill-opacity="0.89"/>
<path d="M593.135 329.89C593.135 333.214 594.199 335.523 595.877 336.537L581.601 328.228C579.739 327.231 578.559 324.805 578.559 321.332V247.851C578.63 244.652 579.437 241.513 580.919 238.678L595.346 247.551C593.96 250.303 593.205 253.329 593.135 256.408V329.89Z" fill="#086BFF" fill-opacity="0.89"/>
<path opacity="0.3" d="M580.919 238.678C582.257 235.834 584.364 233.422 587.002 231.715L653.101 193.495C653.861 192.968 654.741 192.639 655.661 192.537C656.581 192.436 657.512 192.565 658.369 192.914C658.55 192.997 658.723 193.097 658.885 193.213L673.261 201.638C672.382 201.188 671.395 200.989 670.411 201.063C669.426 201.136 668.48 201.479 667.677 202.053L601.578 240.273C598.85 242.056 596.688 244.582 595.346 247.551L580.919 238.678Z" fill="#00A3FF"/>
<path opacity="0.6" d="M593.135 329.89C593.135 333.214 594.199 335.523 595.877 336.537L581.601 328.228C579.739 327.231 578.559 324.805 578.559 321.332V247.851C578.63 244.652 579.437 241.513 580.919 238.678L595.346 247.551C593.96 250.303 593.205 253.329 593.135 256.408V329.89Z" fill="#00256D"/>
<path d="M658.546 268.661C662.57 277.291 660.52 281.822 654.015 281.243C652.227 281.098 650.487 280.592 648.9 279.757C647.313 278.921 645.911 277.774 644.779 276.382C644.137 278.937 641.858 280.146 637.69 279.78C630.844 279.177 623.134 273.733 619.77 266.519C616.406 259.305 619.45 254.861 626.348 255.457C629.866 255.797 633.209 257.148 635.974 259.348L634.647 256.501L641.857 257.136L649.132 272.739C649.431 273.6 649.959 274.362 650.66 274.943C651.361 275.525 652.208 275.903 653.109 276.037C655.542 276.259 655.839 273.829 653.233 268.241C648.676 258.467 637.578 251.028 625.821 250.001C614.064 248.974 609.548 255.609 614.239 265.669C616.849 270.951 620.755 275.486 625.592 278.851C630.428 282.216 636.038 284.301 641.899 284.913C645.099 285.285 648.343 284.868 651.345 283.698L655.109 288.269C651.588 289.578 647.805 290.028 644.076 289.582C628.774 288.228 614.26 277.907 608.333 265.196C602.406 252.485 608.301 244.126 623.714 245.483C638.601 246.773 652.913 256.583 658.546 268.661ZM640.285 268.357C639.424 266.434 638.079 264.766 636.382 263.517C634.684 262.268 632.692 261.481 630.599 261.231C626.765 260.874 625.187 263.113 627.097 267.209C627.95 269.14 629.287 270.819 630.978 272.082C632.669 273.346 634.657 274.152 636.751 274.424C640.557 274.721 642.259 272.589 640.285 268.357Z" fill="#086BFF" fill-opacity="0.89"/>
<path d="M587.002 362.626L653.101 324.406C653.86 323.876 654.741 323.547 655.663 323.448C656.584 323.349 657.515 323.485 658.369 323.841C658.55 323.925 658.722 324.025 658.885 324.141L673.261 332.566H673.161C674.973 333.596 676.12 335.989 676.12 339.395V412.877C676.12 419.108 672.347 426.32 667.677 429.012L601.578 467.232C600.741 467.843 599.743 468.192 598.707 468.236C597.672 468.281 596.647 468.018 595.761 467.481L595.878 467.581L581.601 459.189C579.739 458.209 578.559 455.866 578.559 452.293V378.745C578.559 372.53 582.266 365.318 587.002 362.626Z" fill="#08E1FF"/>
<path d="M580.919 369.589C582.252 366.742 584.36 364.329 587.002 362.626L653.101 324.406C653.86 323.876 654.742 323.547 655.663 323.448C656.584 323.349 657.515 323.485 658.369 323.841C658.55 323.925 658.723 324.025 658.885 324.141L673.261 332.566C672.384 332.112 671.398 331.909 670.413 331.979C669.427 332.05 668.481 332.391 667.677 332.964L601.578 371.184C598.846 372.97 596.683 375.502 595.346 378.479L580.919 369.589Z" fill="#086BFF" fill-opacity="0.89"/>
<path d="M593.135 460.785C593.135 464.108 594.199 466.418 595.877 467.515L581.601 459.123C579.739 458.142 578.559 455.799 578.559 452.227V378.745C578.63 375.552 579.437 372.418 580.919 369.589L595.346 378.463C593.961 381.208 593.206 384.228 593.135 387.303V460.785Z" fill="#086BFF" fill-opacity="0.89"/>
<path opacity="0.3" d="M580.919 369.589C582.252 366.742 584.36 364.329 587.002 362.626L653.101 324.406C653.86 323.876 654.742 323.547 655.663 323.448C656.584 323.349 657.515 323.485 658.369 323.841C658.55 323.925 658.723 324.025 658.885 324.141L673.261 332.566C672.384 332.112 671.398 331.909 670.413 331.979C669.427 332.05 668.481 332.391 667.677 332.964L601.578 371.184C598.846 372.97 596.683 375.502 595.346 378.479L580.919 369.589Z" fill="#0077E4"/>
<path opacity="0.6" d="M593.135 460.785C593.135 464.108 594.199 466.418 595.877 467.515L581.601 459.123C579.739 458.142 578.559 455.799 578.559 452.227V378.745C578.63 375.552 579.437 372.418 580.919 369.589L595.346 378.463C593.961 381.208 593.206 384.228 593.135 387.303V460.785Z" fill="#004770"/>
<path d="M642.015 395.479L657.954 369.589V404.668L642.015 395.479Z" fill="#086BFF" fill-opacity="0.89"/>
<path d="M627.207 402.94L611.301 430.475V395.445L627.207 402.94Z" fill="#086BFF" fill-opacity="0.89"/>
<path d="M655.544 368.409L639.173 394.997C639.104 395.055 639.042 395.122 638.99 395.196C638.976 395.262 638.976 395.33 638.99 395.396L634.121 403.305L629.999 401.361C629.935 401.292 629.862 401.23 629.783 401.178C629.62 401.084 629.438 401.027 629.251 401.012L612.631 393.219L655.544 368.409Z" fill="#086BFF" fill-opacity="0.89"/>
<path d="M629.617 404.07L634.071 406.164C634.242 406.243 634.43 406.283 634.619 406.28C634.849 406.283 635.075 406.226 635.276 406.115C635.477 406.004 635.646 405.844 635.766 405.648L640.636 397.739L656.624 406.978L613.595 431.804L629.617 404.07Z" fill="#086BFF" fill-opacity="0.89"/>
<g opacity="0.9">
<path d="M642.015 395.479L657.954 369.589V404.668L642.015 395.479Z" fill="#6100FF"/>
<path d="M627.207 402.94L611.301 430.475V395.445L627.207 402.94Z" fill="#6100FF"/>
<path d="M655.544 368.409L639.173 394.997C639.104 395.055 639.042 395.122 638.99 395.196C638.976 395.262 638.976 395.33 638.99 395.396L634.121 403.305L629.999 401.361C629.935 401.292 629.862 401.23 629.783 401.178C629.62 401.084 629.438 401.027 629.251 401.012L612.631 393.219L655.544 368.409Z" fill="#6100FF"/>
<path d="M629.617 404.07L634.071 406.164C634.242 406.243 634.43 406.283 634.619 406.28C634.849 406.283 635.075 406.226 635.276 406.115C635.477 406.004 635.646 405.844 635.766 405.648L640.636 397.739L656.624 406.978L613.595 431.804L629.617 404.07Z" fill="#6100FF"/>
</g>
<path d="M587.002 100.871L653.101 62.6508C653.86 62.1207 654.741 61.791 655.663 61.6923C656.584 61.5935 657.515 61.7288 658.369 62.0858C658.55 62.1692 658.722 62.2693 658.885 62.3849L673.261 70.8099H673.161C674.973 71.8235 676.12 74.233 676.12 77.6396V151.121C676.12 157.336 672.347 164.565 667.677 167.257L601.578 205.476C600.741 206.087 599.743 206.436 598.707 206.481C597.672 206.525 596.647 206.262 595.761 205.726L595.878 205.809L581.601 197.5C579.739 196.52 578.559 194.177 578.559 190.604V116.939C578.559 110.725 582.266 103.496 587.002 100.871Z" fill="#08C4FF"/>
<path d="M580.919 107.783C582.252 104.932 584.36 102.514 587.002 100.804L653.101 62.6508C653.86 62.1207 654.742 61.791 655.663 61.6923C656.584 61.5935 657.515 61.7288 658.369 62.0858C658.55 62.1692 658.723 62.2693 658.885 62.3849L673.261 70.8099C672.384 70.3562 671.398 70.1534 670.413 70.2238C669.427 70.2941 668.481 70.6349 667.677 71.2087L601.578 109.428C598.846 111.214 596.683 113.746 595.346 116.723L580.919 107.783Z" fill="#086BFF" fill-opacity="0.89"/>
<path d="M593.135 198.913C593.135 202.236 594.199 204.546 595.877 205.56L581.601 197.251C579.739 196.27 578.559 193.927 578.559 190.355V116.939C578.63 113.746 579.437 110.613 580.919 107.783L595.346 116.657C593.961 119.403 593.206 122.423 593.135 125.497V198.913Z" fill="#086BFF" fill-opacity="0.89"/>
<path opacity="0.3" d="M580.919 107.783C582.252 104.932 584.36 102.514 587.002 100.804L653.101 62.6508C653.86 62.1207 654.742 61.791 655.663 61.6923C656.584 61.5935 657.515 61.7288 658.369 62.0858C658.55 62.1692 658.723 62.2693 658.885 62.3849L673.261 70.8099C672.384 70.3562 671.398 70.1534 670.413 70.2238C669.427 70.2941 668.481 70.6349 667.677 71.2087L601.578 109.428C598.846 111.214 596.683 113.746 595.346 116.723L580.919 107.783Z" fill="#6171FF"/>
<path opacity="0.6" d="M593.135 198.913C593.135 202.236 594.199 204.546 595.877 205.56L581.601 197.251C579.739 196.27 578.559 193.927 578.559 190.355V116.939C578.63 113.746 579.437 110.613 580.919 107.783L595.346 116.657C593.961 119.403 593.206 122.423 593.135 125.497V198.913Z" fill="#13005D"/>
<path d="M614.758 167.34C617.301 163.152 619.861 159.031 622.403 154.81C622.807 154.011 623.371 153.303 624.06 152.731C624.749 152.159 625.549 151.736 626.409 151.487C627.639 151.238 628.869 150.955 630.132 150.59C630.582 150.402 630.96 150.076 631.212 149.659C635.373 142.539 638.681 134.953 641.068 127.059C641.119 126.891 641.133 126.713 641.11 126.538C641.087 126.364 641.027 126.196 640.935 126.046C640.154 125.265 639.273 124.55 638.475 123.852C637.677 123.154 637.262 121.542 637.844 119.449C639.073 115.012 640.253 110.575 641.483 106.155C641.721 104.899 642.286 103.728 643.12 102.759C643.955 101.791 645.03 101.059 646.237 100.638C648.917 99.8929 651.762 99.9974 654.381 100.937C655.394 101.319 655.926 102.233 655.943 103.812C655.511 106.853 655.228 109.861 654.647 112.951C650.547 135.241 640.686 155.735 625.063 174.435C624.655 175.055 624.107 175.571 623.463 175.94C622.819 176.31 622.098 176.523 621.356 176.562C618.77 176.501 616.285 175.543 614.326 173.854C612.847 172.524 612.996 170.165 614.758 167.34Z" fill="#086BFF" fill-opacity="0.89"/>
<path d="M614.958 144.69C615.305 139.911 616.623 135.252 618.83 130.998C620.478 127.674 622.575 124.594 625.063 121.842C625.711 121.11 626.259 120.878 626.592 121.426C626.924 121.975 626.592 122.756 625.96 123.47L625.312 124.218C620.718 129.52 617.823 136.079 617.002 143.045C617.01 143.553 616.96 144.061 616.852 144.557C616.643 145.129 616.308 145.646 615.872 146.07C615.523 146.319 615.124 146.07 614.841 146.07C614.941 145.388 614.924 145.039 614.958 144.69Z" fill="#086BFF" fill-opacity="0.89"/>
<path d="M630.015 131.048C627.928 133.343 626.66 136.264 626.409 139.356C626.299 139.826 626.126 140.279 625.893 140.702C624.88 141.533 624.381 141.251 624.381 140.204C624.736 136.239 626.376 132.5 629.051 129.552C629.683 128.904 630.198 128.705 630.497 129.253C630.605 129.566 630.616 129.904 630.531 130.224C630.445 130.544 630.265 130.83 630.015 131.048Z" fill="#086BFF" fill-opacity="0.89"/>
<g opacity="0.9">
<path d="M614.758 167.34C617.301 163.152 619.861 159.031 622.403 154.81C622.807 154.011 623.371 153.303 624.06 152.731C624.749 152.159 625.549 151.736 626.409 151.487C627.639 151.238 628.869 150.955 630.132 150.59C630.582 150.402 630.96 150.076 631.212 149.659C635.373 142.539 638.681 134.953 641.068 127.059C641.119 126.891 641.133 126.713 641.11 126.538C641.087 126.364 641.027 126.196 640.935 126.046C640.154 125.265 639.273 124.55 638.475 123.852C637.677 123.154 637.262 121.542 637.844 119.449C639.073 115.012 640.253 110.575 641.483 106.155C641.721 104.899 642.286 103.728 643.12 102.759C643.955 101.791 645.03 101.059 646.237 100.638C648.917 99.8929 651.762 99.9974 654.381 100.937C655.394 101.319 655.926 102.233 655.943 103.812C655.511 106.853 655.228 109.861 654.647 112.951C650.547 135.241 640.686 155.735 625.063 174.435C624.655 175.055 624.107 175.571 623.463 175.94C622.819 176.31 622.098 176.523 621.356 176.562C618.77 176.501 616.285 175.543 614.326 173.854C612.847 172.524 612.996 170.165 614.758 167.34Z" fill="#6100FF"/>
<path d="M614.958 144.69C615.305 139.911 616.623 135.252 618.83 130.998C620.478 127.674 622.575 124.594 625.063 121.842C625.711 121.11 626.259 120.878 626.592 121.426C626.924 121.975 626.592 122.756 625.96 123.47L625.312 124.218C620.718 129.52 617.823 136.079 617.002 143.045C617.01 143.553 616.96 144.061 616.852 144.557C616.643 145.129 616.308 145.646 615.872 146.07C615.523 146.319 615.124 146.07 614.841 146.07C614.941 145.388 614.924 145.039 614.958 144.69Z" fill="#6100FF"/>
<path d="M630.015 131.048C627.928 133.343 626.66 136.264 626.409 139.356C626.299 139.826 626.126 140.279 625.894 140.702C624.88 141.533 624.381 141.251 624.381 140.204C624.737 136.239 626.376 132.5 629.051 129.552C629.683 128.904 630.198 128.705 630.497 129.253C630.605 129.566 630.617 129.904 630.531 130.224C630.445 130.544 630.265 130.83 630.015 131.048Z" fill="#6100FF"/>
</g>
</g>
<g opacity="0.9">
<path d="M659.847 269.962C663.871 278.592 661.821 283.123 655.316 282.544C653.528 282.399 651.788 281.893 650.201 281.058C648.614 280.222 647.212 279.075 646.081 277.683C645.438 280.238 643.159 281.447 638.991 281.081C632.145 280.478 624.435 275.034 621.071 267.82C617.707 260.606 620.751 256.161 627.649 256.758C631.167 257.098 634.51 258.449 637.275 260.649L635.948 257.802L643.158 258.437L650.433 274.04C650.732 274.901 651.26 275.663 651.961 276.244C652.662 276.826 653.509 277.204 654.41 277.338C656.843 277.56 657.14 275.13 654.534 269.542C649.977 259.768 638.879 252.329 627.122 251.302C615.365 250.275 610.849 256.91 615.54 266.97C618.15 272.252 622.056 276.787 626.893 280.152C631.729 283.517 637.339 285.602 643.2 286.214C646.401 286.586 649.644 286.169 652.646 284.999L656.41 289.57C652.889 290.879 649.106 291.329 645.377 290.883C630.075 289.529 615.562 279.208 609.634 266.497C603.707 253.786 609.602 245.427 625.015 246.784C639.902 248.074 654.214 257.884 659.847 269.962ZM641.586 269.658C640.725 267.735 639.38 266.067 637.683 264.818C635.985 263.569 633.993 262.782 631.9 262.532C628.066 262.175 626.488 264.414 628.398 268.51C629.251 270.441 630.588 272.12 632.279 273.383C633.97 274.647 635.958 275.453 638.052 275.725C641.858 276.022 643.56 273.89 641.586 269.658Z" fill="#6100FF"/>
</g>
<defs>
<filter id="filter0_d_169_1110" x="0" y="0" width="759" height="865" filterUnits="userSpaceOnUse" color-interpolation-filters="sRGB">
<feFlood flood-opacity="0" result="BackgroundImageFix"/>
<feColorMatrix in="SourceAlpha" type="matrix" values="0 0 0 0 0 0 0 0 0 0 0 0 0 0 0 0 0 0 127 0" result="hardAlpha"/>
<feMorphology radius="12" operator="erode" in="SourceAlpha" result="effect1_dropShadow_169_1110"/>
<feOffset dy="32"/>
<feGaussianBlur stdDeviation="32"/>
<feColorMatrix type="matrix" values="0 0 0 0 0.0625882 0 0 0 0 0.0926346 0 0 0 0 0.15702 0 0 0 0.14 0"/>
<feBlend mode="normal" in2="BackgroundImageFix" result="effect1_dropShadow_169_1110"/>
<feBlend mode="normal" in="SourceGraphic" in2="effect1_dropShadow_169_1110" result="shape"/>
</filter>
</defs>
</svg>
