<svg width="759" height="865" viewBox="0 0 759 865" fill="none" xmlns="http://www.w3.org/2000/svg">
<g filter="url(#filter0_d_169_889)">
<path d="M379.5 781C560.373 781 707 697.719 707 594.986C707 492.253 560.373 408.972 379.5 408.972C198.627 408.972 52 492.253 52 594.986C52 697.719 198.627 781 379.5 781Z" fill="#2C2C2C"/>
<path d="M515.785 712.271L271.319 571.14C269.169 569.901 267.383 568.118 266.141 565.969C264.899 563.821 264.245 561.383 264.245 558.901C264.245 556.42 264.899 553.982 266.141 551.834C267.383 549.685 269.169 547.902 271.319 546.663L295.435 531.458C299.598 529.061 304.318 527.799 309.122 527.799C313.926 527.799 318.646 529.061 322.809 531.458L567.308 672.605C569.458 673.844 571.244 675.628 572.486 677.776C573.728 679.925 574.382 682.362 574.382 684.844C574.382 687.326 573.728 689.763 572.486 691.912C571.244 694.06 569.458 695.844 567.308 697.083L543.192 712.271C539.027 714.681 534.3 715.95 529.489 715.95C524.677 715.95 519.95 714.681 515.785 712.271Z" fill="#E0E0E0"/>
<path d="M144.076 583.603C173.375 583.603 197.127 569.966 197.127 553.144C197.127 536.321 173.375 522.684 144.076 522.684C114.776 522.684 91.0241 536.321 91.0241 553.144C91.0241 569.966 114.776 583.603 144.076 583.603Z" fill="#E6E6E6"/>
<path d="M602.476 590.582L625.744 603.959C625.744 603.959 613.861 566.62 620.193 528.982C622.586 514.758 627.722 507.695 629.517 503.89C631.312 500.085 645.223 476.571 632.841 465.803C620.459 455.035 591.656 476.687 593.218 534.632C593.929 553.598 597.039 572.398 602.476 590.582Z" fill="#0897FF"/>
<path opacity="0.5" d="M602.476 590.582L625.744 603.959C625.744 603.959 613.861 566.62 620.193 528.982C622.586 514.758 627.722 507.695 629.517 503.89C631.312 500.085 645.223 476.571 632.841 465.803C620.459 455.035 591.656 476.687 593.218 534.632C593.929 553.598 597.039 572.398 602.476 590.582Z" fill="black"/>
<path d="M613.296 597.628C613.126 597.632 612.96 597.582 612.82 597.487C612.68 597.392 612.573 597.255 612.515 597.096C612.431 596.847 603.54 572.553 603.822 533.502C604.105 494.451 624.631 473.248 624.83 473.048C624.907 472.97 624.999 472.909 625.1 472.866C625.202 472.824 625.31 472.802 625.42 472.802C625.53 472.802 625.638 472.824 625.74 472.866C625.841 472.909 625.933 472.97 626.01 473.048C626.088 473.125 626.15 473.217 626.192 473.319C626.234 473.42 626.256 473.528 626.256 473.638C626.256 473.748 626.234 473.856 626.192 473.958C626.15 474.059 626.088 474.151 626.01 474.228C625.811 474.427 605.767 495 605.484 533.519C605.202 572.037 613.977 596.299 614.077 596.531C614.152 596.738 614.141 596.967 614.048 597.166C613.954 597.366 613.785 597.52 613.578 597.595C613.487 597.623 613.391 597.634 613.296 597.628Z" fill="white"/>
<path d="M612.182 596.299L643.993 614.578C647.308 616.537 651.239 617.175 655.003 616.365C658.767 615.555 662.088 613.356 664.303 610.207C666.408 606.932 667.297 603.021 666.812 599.157C665.283 582.639 658.104 578.834 666.896 571.472C675.688 564.111 677.981 563.596 677.483 556.517C676.984 549.438 672.148 546.347 669.854 543.555C667.56 540.764 661.212 534.914 665.533 526.273C669.854 517.632 675.754 509.274 666.812 505.452C661.477 503.159 652.586 506.216 646.735 512.564C640.885 518.912 636.065 523.482 630.464 525.01C624.863 526.539 613.196 526.789 613.695 536.443C614.193 546.098 616.753 549.405 614.459 553.709C610.138 561.751 591.34 566.321 612.182 596.299Z" fill="#0897FF"/>
<path d="M627.905 606.136C627.697 606.13 627.5 606.049 627.347 605.908C627.195 605.768 627.097 605.578 627.074 605.372C627.074 604.807 622.187 547.776 661.411 509.822C661.573 509.689 661.779 509.621 661.988 509.634C662.198 509.646 662.395 509.737 662.54 509.888C662.685 510.04 662.767 510.24 662.771 510.45C662.774 510.66 662.698 510.863 662.558 511.019C623.899 548.424 628.686 604.657 628.736 605.222C628.754 605.44 628.686 605.656 628.546 605.824C628.406 605.992 628.205 606.098 627.988 606.119L627.905 606.136Z" fill="white"/>
<path d="M634.204 557.049C633.994 557.049 633.792 556.971 633.638 556.829C633.484 556.688 633.389 556.493 633.373 556.284C633.025 551.865 631.78 547.562 629.714 543.64C627.648 539.717 624.804 536.256 621.356 533.469C621.266 533.406 621.19 533.326 621.131 533.233C621.072 533.14 621.033 533.037 621.014 532.929C620.996 532.82 620.999 532.71 621.023 532.603C621.048 532.496 621.093 532.395 621.157 532.305C621.218 532.216 621.297 532.14 621.388 532.081C621.48 532.023 621.582 531.983 621.688 531.965C621.795 531.946 621.905 531.949 622.01 531.973C622.116 531.998 622.216 532.043 622.304 532.106C625.978 535.019 629.007 538.664 631.198 542.809C633.39 546.953 634.696 551.508 635.035 556.185C635.053 556.407 634.983 556.627 634.84 556.798C634.697 556.97 634.492 557.077 634.27 557.098L634.204 557.049Z" fill="white"/>
<path d="M631.495 566.836C631.294 566.838 631.099 566.767 630.946 566.637C630.781 566.49 630.68 566.284 630.665 566.064C630.649 565.843 630.72 565.626 630.863 565.457C631.262 564.992 641.085 554.157 664.103 557.032C664.321 557.061 664.519 557.175 664.653 557.35C664.787 557.524 664.846 557.745 664.818 557.963C664.789 558.182 664.675 558.381 664.502 558.518C664.328 558.654 664.107 558.717 663.887 558.694C641.783 555.919 632.193 566.454 632.093 566.554C632.017 566.639 631.925 566.707 631.823 566.756C631.72 566.804 631.608 566.832 631.495 566.836Z" fill="white"/>
<path d="M508.339 695.404L293.341 571.29C278.167 562.532 265.868 539.035 265.868 518.812V58.513C265.868 38.2898 278.167 29.0007 293.341 37.758L508.339 161.873C523.514 170.63 535.812 194.127 535.812 214.35V674.649C535.812 694.856 523.514 704.162 508.339 695.404Z" fill="#455A64"/>
<path d="M533.103 147.399L318.088 23.2843C311.607 19.5455 305.657 19.1134 300.953 21.4066C300.377 21.6949 299.822 22.0225 299.291 22.387L275.192 36.3954C280.045 33.4874 286.394 33.7034 293.358 37.7248L508.356 161.839C523.53 170.597 535.829 194.094 535.829 214.317V674.616C535.829 685.318 532.389 692.895 526.904 696.484L550.687 682.642C556.754 679.418 560.66 671.525 560.66 660.209V199.91C560.66 179.653 548.278 156.156 533.103 147.399Z" fill="#37474F"/>
<path d="M535.812 214.317V674.616C535.812 685.318 532.372 692.895 526.887 696.484L550.688 682.642C556.754 679.418 560.66 671.525 560.66 660.209V199.91L535.896 214.284L535.812 214.317Z" fill="#263238"/>
<path d="M560.577 235.62L535.812 249.911V261.078L560.577 246.77V235.62Z" fill="#37474F"/>
<path d="M549.724 309.883C547.513 311.162 545.718 309.8 545.718 306.859V282.847C545.741 281.346 546.115 279.871 546.81 278.54C547.506 277.21 548.504 276.061 549.724 275.186C551.934 273.906 553.729 275.186 553.729 278.21V302.222C553.707 303.723 553.333 305.198 552.637 306.529C551.941 307.859 550.944 309.008 549.724 309.883Z" fill="#37474F"/>
<path d="M545.701 306.925V282.847C545.724 281.346 546.098 279.871 546.794 278.54C547.489 277.21 548.487 276.061 549.707 275.186C550.071 274.931 550.496 274.775 550.939 274.735C551.382 274.694 551.828 274.769 552.233 274.953L549.225 273.408C548.813 273.21 548.357 273.124 547.902 273.159C547.446 273.194 547.009 273.349 546.632 273.607C545.411 274.482 544.411 275.631 543.713 276.961C543.015 278.291 542.637 279.766 542.61 281.268V305.263C542.548 305.869 542.64 306.482 542.878 307.042C543.117 307.603 543.493 308.095 543.973 308.47L547.114 310.132C546.614 309.772 546.22 309.285 545.971 308.721C545.723 308.157 545.63 307.537 545.701 306.925Z" fill="#455A64"/>
<path d="M549.724 367.994C547.513 369.273 545.718 367.994 545.718 364.969V340.957C545.742 339.456 546.116 337.982 546.812 336.652C547.507 335.322 548.505 334.173 549.724 333.297C551.934 332.017 553.729 333.297 553.729 336.338V360.333C553.709 361.835 553.336 363.31 552.64 364.641C551.945 365.972 550.945 367.12 549.724 367.994Z" fill="#37474F"/>
<path d="M545.701 364.969V340.957C545.725 339.456 546.1 337.982 546.795 336.652C547.491 335.322 548.488 334.173 549.707 333.297C550.073 333.046 550.498 332.893 550.94 332.853C551.382 332.812 551.827 332.885 552.233 333.064L549.225 331.502C548.816 331.295 548.358 331.205 547.901 331.24C547.444 331.275 547.005 331.435 546.632 331.701C545.408 332.574 544.406 333.722 543.708 335.052C543.009 336.383 542.633 337.859 542.61 339.362V363.424C542.546 364.03 542.638 364.643 542.876 365.204C543.115 365.765 543.492 366.256 543.973 366.631L547.114 368.293C546.594 367.924 546.186 367.418 545.937 366.831C545.687 366.244 545.606 365.6 545.701 364.969Z" fill="#455A64"/>
<path d="M500.827 174.784L289.552 52.7801C288.67 52.2729 287.671 52.0051 286.654 52.0032C285.636 52.0013 284.636 52.2654 283.753 52.7693C282.869 53.2732 282.133 53.9994 281.616 54.8757C281.1 55.7521 280.822 56.7482 280.81 57.7653V518.812C280.81 534.2 291.729 553.094 305.058 560.788L511.148 679.817C512.126 680.38 513.234 680.675 514.361 680.674C515.489 680.673 516.596 680.376 517.573 679.812C518.549 679.248 519.36 678.437 519.925 677.461C520.489 676.485 520.787 675.378 520.788 674.25V209.398C520.871 196.702 511.863 181.132 500.827 174.784Z" fill="#0897FF"/>
<path opacity="0.9" d="M500.827 174.784L289.552 52.7801C288.67 52.2729 287.671 52.0051 286.654 52.0032C285.636 52.0013 284.636 52.2654 283.753 52.7693C282.869 53.2732 282.133 53.9994 281.616 54.8757C281.1 55.7521 280.822 56.7482 280.81 57.7653V518.812C280.81 534.2 291.729 553.094 305.058 560.788L511.148 679.817C512.126 680.38 513.234 680.675 514.361 680.674C515.489 680.673 516.596 680.376 517.573 679.812C518.549 679.248 519.36 678.437 519.925 677.461C520.489 676.485 520.787 675.378 520.788 674.25V209.398C520.871 196.702 511.863 181.132 500.827 174.784Z" fill="white"/>
<path d="M352.742 84.6354L356.016 98.4112L426.053 138.791L438.153 132.344L352.742 84.6354Z" fill="#455A64"/>
<path d="M373.334 97.9458C373.334 100.239 371.672 101.153 369.744 100.023C368.709 99.336 367.85 98.4158 367.235 97.3365C366.62 96.2571 366.267 95.0487 366.204 93.8081C366.204 91.5316 367.866 90.601 369.794 91.7476C370.828 92.431 371.688 93.3481 372.303 94.4248C372.918 95.5015 373.271 96.7076 373.334 97.9458Z" fill="#263238"/>
<path d="M420.519 127.109C420.135 127.106 419.759 127.009 419.422 126.827L383.655 106.886C383.15 106.589 382.781 106.107 382.627 105.542C382.473 104.978 382.545 104.375 382.83 103.863C383.114 103.351 383.587 102.97 384.148 102.802C384.709 102.635 385.314 102.693 385.832 102.964L421.615 122.905C422.05 123.147 422.393 123.526 422.588 123.984C422.784 124.441 422.822 124.951 422.697 125.432C422.571 125.914 422.289 126.34 421.895 126.643C421.5 126.947 421.016 127.111 420.519 127.109Z" fill="#263238"/>
<path d="M325.119 148.728C322.942 147.465 321.363 148.562 321.363 151.337C321.363 152.725 321.706 154.091 322.361 155.315C323.016 156.538 323.964 157.581 325.119 158.35C325.738 158.725 326.448 158.924 327.171 158.924C327.895 158.924 328.605 158.725 329.224 158.35L332.698 164.631C331.476 165.305 330.09 165.627 328.696 165.559C327.302 165.492 325.954 165.038 324.803 164.249C321.981 162.523 319.628 160.128 317.953 157.275C316.277 154.423 315.331 151.202 315.197 147.897C315.197 141.732 319.335 139.589 325.036 142.912C328.255 144.985 330.892 147.845 332.698 151.221L329.224 153.979C328.368 151.883 326.946 150.066 325.119 148.728Z" fill="#7400FF" fill-opacity="0.22"/>
<path d="M352.692 169.55C352.692 175.765 348.487 177.858 342.72 174.535C339.817 172.801 337.388 170.376 335.648 167.477C333.909 164.578 332.912 161.294 332.748 157.918C332.748 151.703 336.952 149.609 342.72 152.932C345.629 154.659 348.064 157.081 349.804 159.982C351.545 162.883 352.537 166.171 352.692 169.55ZM338.914 161.623C338.943 163.05 339.311 164.45 339.987 165.706C340.663 166.963 341.628 168.041 342.803 168.852C344.864 170.048 346.526 168.852 346.526 166.027C346.52 164.632 346.179 163.26 345.531 162.025C344.883 160.79 343.947 159.729 342.803 158.931C340.709 157.718 338.914 158.749 338.914 161.623Z" fill="#7400FF" fill-opacity="0.22"/>
<path d="M359.39 162.953L366.57 177.908V167.14L372.004 170.281V191.235L367.018 188.344L359.872 173.521V184.223L354.404 181.066V160.061L359.39 162.953Z" fill="#7400FF" fill-opacity="0.22"/>
<path d="M389.771 180.484V185.968L384.586 182.977V198.464L378.586 194.991V179.504L373.434 176.529V171.062L389.771 180.484Z" fill="#7400FF" fill-opacity="0.22"/>
<path d="M401.472 205.244L394.658 201.305L393.727 203.732L387.577 200.176L395.239 183.641L401.405 187.197L408.785 212.422L402.386 208.733L401.472 205.244ZM399.993 199.428L398.131 192.266L396.22 197.251L399.993 199.428Z" fill="#7400FF" fill-opacity="0.22"/>
<path d="M418.308 202.519C416.131 201.272 414.552 202.352 414.552 205.144C414.555 206.531 414.899 207.896 415.554 209.119C416.209 210.342 417.155 211.385 418.308 212.157C418.931 212.528 419.643 212.725 420.369 212.725C421.094 212.725 421.807 212.528 422.43 212.157L425.903 218.438C424.676 219.104 423.289 219.421 421.894 219.354C420.499 219.286 419.15 218.837 417.992 218.056C415.168 216.328 412.814 213.93 411.138 211.075C409.462 208.22 408.517 204.996 408.386 201.688C408.386 195.523 412.541 193.379 418.225 196.702C421.44 198.785 424.08 201.642 425.903 205.011L422.43 207.753C421.554 205.668 420.13 203.859 418.308 202.519Z" fill="#7400FF" fill-opacity="0.22"/>
<path d="M442.291 210.811V216.278L437.105 213.287V228.824L431.106 225.351V209.863L425.953 206.889V201.422L442.291 210.811Z" fill="#7400FF" fill-opacity="0.22"/>
<path d="M460.025 236.534C461.504 237.382 462.634 236.717 462.634 234.64V222.559L468.651 226.015V238.096C468.651 243.663 465.326 245.325 460.008 242.284C457.446 240.861 455.292 238.804 453.752 236.311C452.213 233.817 451.34 230.97 451.216 228.043V215.962L457.232 219.435V231.516C457.256 232.516 457.522 233.496 458.008 234.37C458.495 235.244 459.187 235.987 460.025 236.534Z" fill="#7400FF" fill-opacity="0.22"/>
<path d="M478.34 236.601C477.659 236.218 477.226 236.202 477.226 236.833C477.226 239.459 486.617 243.248 486.617 250.842C486.617 255.494 483.077 255.511 478.988 253.151C475.394 250.95 472.298 248.024 469.897 244.56L472.124 240.639C473.951 243.468 476.297 245.926 479.038 247.884C479.919 248.399 480.484 248.399 480.484 247.651C480.484 244.926 471.077 241.303 471.077 233.942C471.077 229.754 474.135 228.957 478.855 231.615C481.896 233.454 484.572 235.837 486.75 238.645L484.573 242.666C482.774 240.376 480.678 238.336 478.34 236.601Z" fill="#7400FF" fill-opacity="0.22"/>
<path d="M294.887 251.988C301.63 243.707 305.025 233.2 304.401 222.54C303.777 211.879 299.179 201.84 291.515 194.402C283.851 186.964 273.677 182.668 263.001 182.362C252.325 182.056 241.922 185.761 233.844 192.747C225.766 199.733 220.6 209.493 219.366 220.1C218.131 230.707 220.917 241.392 227.175 250.046C233.432 258.7 242.707 264.695 253.168 266.848C263.629 269.001 274.518 267.156 283.685 261.676L304.493 270.716L294.887 251.988Z" fill="#0897FF"/>
<path d="M294.887 251.988C301.63 243.707 305.025 233.2 304.401 222.54C303.777 211.879 299.179 201.84 291.515 194.402C283.851 186.964 273.677 182.668 263.001 182.362C252.325 182.056 241.922 185.761 233.844 192.747C225.766 199.733 220.6 209.493 219.366 220.1C218.131 230.707 220.917 241.392 227.175 250.046C233.432 258.7 242.707 264.695 253.168 266.848C263.629 269.001 274.518 267.156 283.685 261.676L304.493 270.716L294.887 251.988Z" fill="#270030"/>
<path d="M245.957 222.742C245.957 222.094 245.492 221.728 244.644 221.728C242.678 221.986 240.842 222.851 239.392 224.204L237.032 219.618C239.516 217.749 242.517 216.692 245.625 216.593C249.614 216.593 252.638 218.687 252.638 221.811C252.638 224.038 250.976 226.182 248.849 228.325L245.874 231.266H252.904V236.152H237.797V232.147L244.528 225.185C245.253 224.543 245.753 223.688 245.957 222.742Z" fill="#8201F0"/>
<path d="M265.203 216.876L260.616 227.877H262.494V224.171H268.278V227.877H270.472V232.413H268.278V236.152H262.494V232.413H254.267V228.292L259.253 216.876H265.203Z" fill="#8201F0"/>
<path d="M288.322 226.564V236.152H282.139V228.342C282.175 228.088 282.156 227.829 282.083 227.582C282.01 227.336 281.885 227.108 281.716 226.915C281.547 226.721 281.339 226.566 281.105 226.459C280.872 226.353 280.618 226.298 280.361 226.298C279.148 226.298 278.383 227.245 278.383 228.707V236.152H272.2V215.779H278.383V223.274C278.867 222.509 279.541 221.884 280.339 221.458C281.138 221.033 282.033 220.823 282.937 220.847C283.678 220.828 284.415 220.966 285.099 221.251C285.783 221.536 286.4 221.962 286.908 222.502C287.416 223.041 287.805 223.682 288.049 224.382C288.292 225.082 288.385 225.825 288.322 226.564Z" fill="#8201F0"/>
<path d="M489.924 380.972V587.442C489.928 589.777 489.316 592.072 488.15 594.095C486.985 596.119 485.306 597.8 483.285 598.969C481.263 600.138 478.969 600.754 476.633 600.755C474.297 600.756 472.003 600.142 469.98 598.974L358.758 534.765L339.047 523.399C332.259 519.475 326.62 513.838 322.695 507.052C318.769 500.267 316.693 492.569 316.676 484.73V278.244C316.672 275.908 317.284 273.613 318.45 271.59C319.615 269.566 321.294 267.885 323.315 266.716C325.337 265.547 327.631 264.931 329.967 264.93C332.303 264.929 334.597 265.544 336.62 266.711L467.587 342.303C474.377 346.221 480.016 351.857 483.938 358.645C487.859 365.433 489.923 373.133 489.924 380.972Z" fill="#4200FF"/>
<path opacity="0.5" d="M489.924 380.972V587.442C489.928 589.777 489.316 592.072 488.15 594.095C486.985 596.119 485.306 597.8 483.285 598.969C481.263 600.138 478.969 600.754 476.633 600.755C474.297 600.756 472.003 600.142 469.98 598.974L358.758 534.765L339.047 523.399C332.259 519.475 326.62 513.838 322.695 507.052C318.769 500.267 316.693 492.569 316.676 484.73V278.244C316.672 275.908 317.284 273.613 318.45 271.59C319.615 269.566 321.294 267.885 323.315 266.716C325.337 265.547 327.631 264.931 329.967 264.93C332.303 264.929 334.597 265.544 336.62 266.711L467.587 342.303C474.377 346.221 480.016 351.857 483.938 358.645C487.859 365.433 489.923 373.133 489.924 380.972Z" fill="white"/>
<path d="M425.854 503.142C425.854 503.142 446.679 537.673 431.637 576.607L358.708 534.765L425.854 503.142Z" fill="#263238"/>
<path d="M459.065 347.998C460.641 335.201 451.542 323.549 438.743 321.973C425.943 320.397 414.289 329.494 412.712 342.292C411.136 355.089 420.235 366.742 433.035 368.317C445.835 369.893 457.489 360.796 459.065 347.998Z" fill="black"/>
<path d="M436.009 279.656C436.009 279.656 443.172 268.024 445.366 268.871C447.56 269.719 443.936 280.803 443.936 280.803C443.936 280.803 454.773 283.063 452.762 285.788C450.751 288.513 437.504 287.865 437.504 287.865L436.009 279.656Z" fill="black"/>
<path d="M440.995 309.634C436.008 347.089 404.43 347.089 404.43 347.089L338.282 317.976C338.282 317.976 333.296 313.605 331.767 303.568C331.18 299.457 331.18 295.283 331.767 291.172C331.767 291.172 331.767 291.089 331.767 291.056C333.878 275.302 345.661 258.369 371.323 253.168C376.946 252.033 382.671 251.476 388.408 251.506C391.184 251.497 393.958 251.635 396.718 251.922C416.663 253.883 430.64 263.188 437.305 277.662C438.804 280.929 439.919 284.358 440.629 287.882C441.982 295.059 442.105 302.415 440.995 309.634Z" fill="black"/>
<path d="M282.189 382.085C282.189 382.085 258.705 381.271 249.663 404.153C249.663 404.153 259.636 410.883 272.716 404.153C285.796 397.423 282.189 382.085 282.189 382.085Z" fill="#0897FF"/>
<path opacity="0.5" d="M282.189 382.085C282.189 382.085 258.705 381.271 249.663 404.153C249.663 404.153 259.636 410.883 272.716 404.153C285.796 397.423 282.189 382.085 282.189 382.085Z" fill="black"/>
<path d="M281.524 393.102C281.524 393.102 274.876 364.222 271.369 363.873C267.862 363.524 267.181 372.68 267.464 377.848L259.153 359.967C258.89 359.412 258.515 358.916 258.053 358.511C257.59 358.105 257.049 357.799 256.464 357.611C255.878 357.422 255.26 357.356 254.648 357.415C254.036 357.475 253.443 357.659 252.904 357.957C244.594 362.527 230.018 376.419 260.749 410.767L281.524 393.102Z" fill="#CFA7A7"/>
<path d="M366.619 373.128L361.633 372.48C356.608 371.814 351.497 372.497 346.823 374.46C342.15 376.422 338.083 379.593 335.041 383.647L305.374 423.13L282.106 382.085C282.106 382.085 279.314 410.002 249.58 404.153L281.508 457.877C283.528 461.278 286.341 464.14 289.705 466.221C293.07 468.302 296.888 469.54 300.834 469.829C304.78 470.117 308.737 469.449 312.369 467.88C316.001 466.311 319.201 463.889 321.695 460.818L349.019 427.234L366.619 373.128Z" fill="#7400FF" fill-opacity="0.22"/>
<path d="M429.942 465.271C423.294 482.121 422.563 485.411 426.618 493.836C429.442 500.059 431.668 506.535 433.266 513.179C433.266 513.179 402.452 547.71 358.592 534.781L338.88 523.415C334.781 521.052 331.089 518.044 327.944 514.508L333.944 469.775C334.246 467.42 334.007 465.027 333.246 462.779L326.947 444.317C323.873 435.3 323.416 425.597 325.628 416.33C327.839 407.064 332.63 398.613 339.445 391.956L360.619 371.267L416.23 378.379L424.541 380.756C429.981 382.329 434.671 385.812 437.748 390.565C440.826 395.318 442.085 401.022 441.294 406.629C438.568 426.237 434.114 454.686 429.942 465.271Z" fill="#0897FF"/>
<path opacity="0.7" d="M429.942 465.271C423.294 482.121 422.563 485.411 426.618 493.836C429.442 500.059 431.668 506.535 433.266 513.179C433.266 513.179 402.452 547.71 358.592 534.781L338.88 523.415C334.781 521.052 331.089 518.044 327.944 514.508L333.944 469.775C334.246 467.42 334.007 465.027 333.246 462.779L326.947 444.317C323.873 435.3 323.416 425.597 325.628 416.33C327.839 407.064 332.63 398.613 339.445 391.956L360.619 371.267L416.23 378.379L424.541 380.756C429.981 382.329 434.671 385.812 437.748 390.565C440.826 395.318 442.085 401.022 441.294 406.629C438.568 426.237 434.114 454.686 429.942 465.271Z" fill="#02006A"/>
<path d="M396.403 414.937L385.267 405.449C384.088 404.44 382.666 403.757 381.142 403.465C379.617 403.174 378.043 403.285 376.575 403.787L363.113 408.423L361.301 400.879C361.018 399.706 360.501 398.601 359.779 397.633C359.058 396.665 358.148 395.852 357.105 395.245C356.061 394.638 354.905 394.249 353.707 394.1C352.509 393.952 351.293 394.048 350.132 394.382L344.299 396.044L354.171 377.133C357.394 370.974 362.36 365.9 368.448 362.543L372.32 360.416L404.314 362.078C404.314 362.078 416.231 367.063 416.231 378.28L396.403 414.838" fill="#7400FF" fill-opacity="0.22"/>
<path d="M404.447 376.252L372.37 401.245V321.665H404.447V376.252Z" fill="#CFA7A7"/>
<path d="M372.869 369.689L363.113 408.49L404.314 376.252L372.869 369.689Z" fill="#CFA7A7"/>
<path d="M372.37 363.922C379.503 361.274 386.023 357.204 391.534 351.96C397.045 346.715 401.433 340.405 404.43 333.413V321.665H372.353L372.37 363.922Z" fill="#703838"/>
<path d="M379.284 262.69C367.118 262.69 341.257 269.47 338.265 301.308C335.274 333.147 338.166 357.807 354.586 360.2C371.007 362.593 409.167 350.678 414.286 309.468C419.405 268.257 391.134 262.69 379.284 262.69Z" fill="#CFA7A7"/>
<path d="M360.138 314.785V333.546L349.135 330.173L360.138 314.785Z" fill="#703838"/>
<path d="M372.37 321.847C374.481 321.847 376.193 320.136 376.193 318.025C376.193 315.915 374.481 314.203 372.37 314.203C370.259 314.203 368.547 315.915 368.547 318.025C368.547 320.136 370.259 321.847 372.37 321.847Z" fill="#263238"/>
<path d="M351.03 315.367C351.026 316.122 350.799 316.859 350.377 317.485C349.955 318.112 349.357 318.599 348.658 318.886C347.96 319.173 347.192 319.246 346.451 319.097C345.711 318.947 345.031 318.582 344.498 318.047C343.965 317.512 343.603 316.83 343.457 316.09C343.31 315.349 343.387 314.581 343.677 313.884C343.967 313.186 344.457 312.59 345.085 312.171C345.713 311.752 346.452 311.528 347.207 311.528C347.71 311.528 348.209 311.627 348.674 311.821C349.139 312.014 349.561 312.297 349.916 312.653C350.271 313.01 350.552 313.433 350.743 313.899C350.935 314.365 351.032 314.863 351.03 315.367Z" fill="#263238"/>
<path d="M342.537 307.39L350.016 302.954C350.016 302.954 347.157 299.979 344.299 301.757C341.44 303.535 342.537 307.39 342.537 307.39Z" fill="#263238"/>
<path d="M354.969 341.157C358.611 341.423 362.236 340.45 365.256 338.398C365.256 338.398 365.971 343.832 361.417 344.862C356.863 345.893 354.969 341.157 354.969 341.157Z" fill="#703838"/>
<path d="M348.437 273.524C348.437 273.524 353.007 317.477 412.79 318.856C412.79 318.856 430.856 275.169 395.156 260.978C359.456 246.787 348.437 273.524 348.437 273.524Z" fill="black"/>
<path d="M430.391 312.276L423.045 308.022C420.253 306.36 416.397 306.593 412.125 309.052C403.649 313.938 396.768 325.852 396.768 335.64C396.768 340.542 398.43 343.948 401.289 345.61L408.502 349.764L408.918 349.997L409.167 350.147C411.893 351.476 415.532 351.16 419.538 348.851C428.014 343.865 434.895 332.05 434.895 322.263C434.845 317.311 433.133 313.888 430.391 312.276Z" fill="#0D08FF"/>
<path d="M430.333 337.305C436.327 326.925 436.327 315.705 430.333 312.246C424.339 308.786 414.621 314.395 408.627 324.775C402.634 335.155 402.633 346.375 408.627 349.835C414.621 353.295 424.339 347.685 430.333 337.305Z" fill="#0897FF"/>
<path opacity="0.5" d="M430.333 337.305C436.327 326.925 436.327 315.705 430.333 312.246C424.339 308.786 414.621 314.395 408.627 324.775C402.634 335.155 402.633 346.375 408.627 349.835C414.621 353.295 424.339 347.685 430.333 337.305Z" fill="#000AFF"/>
<path d="M433.333 321.498L428.347 318.59C426.452 317.46 423.809 317.61 420.884 319.288C417.829 321.285 415.286 323.972 413.461 327.133C411.636 330.294 410.581 333.84 410.38 337.484C410.38 340.808 411.56 343.184 413.472 344.281L418.458 347.122C418.546 347.187 418.641 347.243 418.74 347.288L418.906 347.388C420.075 347.831 421.335 347.981 422.575 347.825C423.815 347.668 424.998 347.21 426.02 346.491C429.073 344.496 431.615 341.811 433.439 338.653C435.264 335.495 436.321 331.953 436.524 328.312C436.391 324.938 435.227 322.595 433.333 321.498Z" fill="#7508FF"/>
<path d="M436.391 328.278C436.188 331.92 435.131 335.462 433.306 338.62C431.482 341.778 428.94 344.463 425.887 346.458C420.07 349.781 415.366 347.089 415.366 340.392C415.563 336.748 416.619 333.201 418.447 330.042C420.276 326.883 422.825 324.2 425.887 322.213C431.687 318.856 436.391 321.565 436.391 328.278Z" fill="#0812FF"/>
<path opacity="0.3" d="M436.391 328.278C436.188 331.92 435.131 335.462 433.306 338.62C431.482 341.778 428.94 344.463 425.887 346.458C420.07 349.781 415.366 347.089 415.366 340.392C415.563 336.748 416.619 333.201 418.447 330.042C420.276 326.883 422.825 324.2 425.887 322.213C431.687 318.856 436.391 321.565 436.391 328.278Z" fill="black"/>
<path d="M407.571 254.115C402.807 250.436 396.971 248.411 390.951 248.349H389.472C383.376 248.283 377.289 248.84 371.306 250.011C372.403 250.011 373.5 250.011 374.63 250.011H371.306V253.102H374.398C385.052 253.464 395.147 257.954 402.551 265.623C409.954 273.291 414.085 283.538 414.07 294.196V307.274C414.069 307.791 414.178 308.302 414.388 308.775C414.597 309.247 414.904 309.67 415.288 310.017C415.672 310.363 416.125 310.624 416.616 310.785C417.108 310.945 417.628 311 418.142 310.946H418.524L421.848 309.916C421.627 309.986 421.398 310.031 421.167 310.049C422.158 309.915 423.064 309.42 423.714 308.66C424.364 307.9 424.712 306.928 424.69 305.928V293.797C424.657 271.846 415.167 260.048 407.571 254.115Z" fill="#0812FF"/>
<path d="M386.647 359.286C385.276 359.286 383.921 358.992 382.674 358.422L372.287 353.62C372.124 353.562 371.976 353.47 371.85 353.352C371.725 353.233 371.625 353.09 371.558 352.931C371.491 352.772 371.458 352.601 371.46 352.429C371.462 352.256 371.501 352.086 371.572 351.929C371.644 351.772 371.747 351.632 371.876 351.517C372.005 351.402 372.156 351.315 372.32 351.261C372.484 351.208 372.657 351.189 372.829 351.206C373.001 351.223 373.167 351.275 373.317 351.36L383.705 356.162C385.03 356.778 386.514 356.965 387.95 356.697C389.386 356.429 390.703 355.719 391.716 354.667L401.688 344.364C401.922 344.13 402.238 343.999 402.569 343.999C402.899 343.999 403.216 344.13 403.45 344.364C403.679 344.6 403.808 344.916 403.808 345.245C403.808 345.573 403.679 345.889 403.45 346.125L393.478 356.428C392.59 357.339 391.527 358.062 390.354 358.553C389.18 359.044 387.919 359.294 386.647 359.286Z" fill="#0897FF"/>
<path opacity="0.5" d="M386.647 359.286C385.276 359.286 383.921 358.992 382.674 358.422L372.287 353.62C372.124 353.562 371.976 353.47 371.85 353.352C371.725 353.233 371.625 353.09 371.558 352.931C371.491 352.772 371.458 352.601 371.46 352.429C371.462 352.256 371.501 352.086 371.572 351.929C371.644 351.772 371.747 351.632 371.876 351.517C372.005 351.402 372.156 351.315 372.32 351.261C372.484 351.208 372.657 351.189 372.829 351.206C373.001 351.223 373.167 351.275 373.317 351.36L383.705 356.162C385.03 356.778 386.514 356.965 387.95 356.697C389.386 356.429 390.703 355.719 391.716 354.667L401.688 344.364C401.922 344.13 402.238 343.999 402.569 343.999C402.899 343.999 403.216 344.13 403.45 344.364C403.679 344.6 403.808 344.916 403.808 345.245C403.808 345.573 403.679 345.889 403.45 346.125L393.478 356.428C392.59 357.339 391.527 358.062 390.354 358.553C389.18 359.044 387.919 359.294 386.647 359.286Z" fill="#0B008E"/>
<path d="M375.013 350.13C375.013 351.09 374.728 352.028 374.195 352.826C373.661 353.624 372.903 354.246 372.017 354.613C371.13 354.98 370.154 355.076 369.213 354.889C368.271 354.702 367.407 354.24 366.728 353.561C366.049 352.882 365.587 352.018 365.4 351.077C365.212 350.135 365.308 349.16 365.676 348.273C366.043 347.387 366.665 346.629 367.463 346.096C368.261 345.562 369.2 345.278 370.159 345.278C371.447 345.278 372.681 345.789 373.591 346.699C374.501 347.609 375.013 348.843 375.013 350.13Z" fill="#0897FF"/>
<path opacity="0.5" d="M375.013 350.13C375.013 351.09 374.728 352.028 374.195 352.826C373.661 353.624 372.903 354.246 372.017 354.613C371.13 354.98 370.154 355.076 369.213 354.889C368.271 354.702 367.407 354.24 366.728 353.561C366.049 352.882 365.587 352.018 365.4 351.077C365.212 350.135 365.308 349.16 365.676 348.273C366.043 347.387 366.665 346.629 367.463 346.096C368.261 345.562 369.2 345.278 370.159 345.278C371.447 345.278 372.681 345.789 373.591 346.699C374.501 347.609 375.013 348.843 375.013 350.13Z" fill="#1400FF"/>
<path d="M424.657 293.797V305.928C424.678 306.928 424.331 307.9 423.681 308.66C423.031 309.42 422.124 309.915 421.133 310.049C420.586 310.107 420.032 310.05 419.509 309.88C418.985 309.71 418.503 309.432 418.093 309.064C417.684 308.696 417.357 308.245 417.134 307.742C416.91 307.239 416.795 306.695 416.796 306.144V293.797C416.805 287.905 415.622 282.071 413.318 276.648C411.014 271.224 407.636 266.323 403.388 262.238C399.139 258.154 394.109 254.971 388.598 252.881C383.088 250.791 377.212 249.837 371.323 250.077C377.306 248.907 383.393 248.35 389.489 248.416H390.935C396.955 248.478 402.79 250.502 407.555 254.182C415.167 260.048 424.657 271.846 424.657 293.797Z" fill="#1C08FF"/>
<path opacity="0.5" d="M424.657 293.797V305.928C424.678 306.928 424.331 307.9 423.681 308.66C423.031 309.42 422.124 309.915 421.133 310.049C420.586 310.107 420.032 310.05 419.509 309.88C418.985 309.71 418.503 309.432 418.093 309.064C417.684 308.696 417.357 308.245 417.134 307.742C416.91 307.239 416.795 306.695 416.796 306.144V293.797C416.805 287.905 415.622 282.071 413.318 276.648C411.014 271.224 407.636 266.323 403.388 262.238C399.139 258.154 394.109 254.971 388.598 252.881C383.088 250.791 377.212 249.837 371.323 250.077C377.306 248.907 383.393 248.35 389.489 248.416H390.935C396.955 248.478 402.79 250.502 407.555 254.182C415.167 260.048 424.657 271.846 424.657 293.797Z" fill="black"/>
<path d="M405.976 522.402C405.976 522.402 397.932 544.552 426.685 554.523C426.685 554.523 436.075 540.73 426.685 529.447C417.294 518.164 405.976 522.402 405.976 522.402Z" fill="#0897FF"/>
<path opacity="0.7" d="M405.976 522.402C405.976 522.402 397.932 544.552 426.685 554.523C426.685 554.523 436.075 540.73 426.685 529.447C417.294 518.164 405.976 522.402 405.976 522.402Z" fill="black"/>
<path d="M416.064 523.415C416.064 523.415 387.976 533.701 388.126 537.689C388.275 541.678 400.059 538.952 400.059 538.952L395.754 541.777C391.222 544.735 387.71 549.017 385.699 554.041C385.261 555.149 385.246 556.38 385.656 557.498C386.067 558.617 386.875 559.545 387.926 560.106L398.597 565.756C399.199 566.076 399.86 566.271 400.539 566.331C401.219 566.391 401.903 566.314 402.552 566.105C403.202 565.896 403.802 565.559 404.319 565.114C404.836 564.668 405.258 564.124 405.56 563.513C406.155 562.338 406.977 561.292 407.978 560.437C408.98 559.581 410.141 558.932 411.394 558.528C417.194 556.6 428.014 551.05 432.352 535.862L416.064 523.415Z" fill="#CFA7A7"/>
<path d="M424.491 380.722C424.491 380.722 409.533 389.031 417.477 414.256C425.421 439.481 440.33 478.615 440.33 478.615L405.976 522.402C409.646 522.844 413.182 524.056 416.352 525.957C419.522 527.858 422.256 530.406 424.374 533.435C426.404 536.516 427.672 540.034 428.073 543.701C428.475 547.367 427.999 551.076 426.685 554.523L469.332 499.686C473.276 494.618 475.894 488.647 476.951 482.314C478.007 475.98 477.468 469.483 475.382 463.41L457.099 410.035C454.865 403.515 451.151 397.601 446.249 392.755C441.348 387.909 435.391 384.263 428.845 382.102L424.491 380.722Z" fill="#7400FF" fill-opacity="0.22"/>
<path d="M171.997 231.715L105.899 193.495C105.139 192.968 104.258 192.639 103.339 192.537C102.419 192.436 101.488 192.565 100.631 192.914C100.45 192.997 100.277 193.097 100.115 193.213L85.7389 201.638H85.8386C84.027 202.668 82.8802 205.061 82.8802 208.484V281.999C82.8802 288.214 86.653 295.442 91.3233 298.134L157.422 336.354C158.26 336.961 159.259 337.308 160.293 337.352C161.327 337.396 162.351 337.136 163.239 336.604C163.194 336.621 163.154 336.65 163.122 336.687L177.399 328.378C179.26 327.381 180.441 324.955 180.441 321.482V247.851C180.441 241.636 176.734 234.407 171.997 231.715Z" fill="#08D3FF"/>
<path d="M178.08 238.678C176.743 235.834 174.636 233.422 171.997 231.715L105.899 193.495C105.138 192.968 104.258 192.639 103.339 192.537C102.419 192.436 101.488 192.565 100.631 192.914C100.45 192.997 100.277 193.097 100.115 193.213L85.7389 201.638C86.6183 201.188 87.6044 200.989 88.5893 201.063C89.5742 201.136 90.5201 201.479 91.3233 202.053L157.422 240.273C160.15 242.056 162.312 244.582 163.654 247.551L178.08 238.678Z" fill="#086BFF" fill-opacity="0.89"/>
<path d="M165.865 329.89C165.865 333.214 164.801 335.523 163.122 336.537L177.399 328.228C179.26 327.231 180.441 324.805 180.441 321.332V247.851C180.37 244.652 179.563 241.513 178.08 238.678L163.654 247.551C165.039 250.303 165.794 253.329 165.865 256.408V329.89Z" fill="#086BFF" fill-opacity="0.89"/>
<path opacity="0.3" d="M178.08 238.678C176.743 235.834 174.636 233.422 171.997 231.715L105.899 193.495C105.138 192.968 104.258 192.639 103.339 192.537C102.419 192.436 101.488 192.565 100.631 192.914C100.45 192.997 100.277 193.097 100.115 193.213L85.7389 201.638C86.6183 201.188 87.6044 200.989 88.5893 201.063C89.5742 201.136 90.5201 201.479 91.3233 202.053L157.422 240.273C160.15 242.056 162.312 244.582 163.654 247.551L178.08 238.678Z" fill="#00A3FF"/>
<path opacity="0.6" d="M165.865 329.89C165.865 333.214 164.801 335.523 163.122 336.537L177.399 328.228C179.26 327.231 180.441 324.805 180.441 321.332V247.851C180.37 244.652 179.563 241.513 178.08 238.678L163.654 247.551C165.039 250.303 165.794 253.329 165.865 256.408V329.89Z" fill="#00256D"/>
<path d="M146.486 277.463C146.486 286.984 142.713 290.225 137.062 286.951C135.503 286.064 134.14 284.87 133.055 283.442C131.969 282.014 131.184 280.382 130.746 278.642C129.084 280.686 126.508 280.819 122.885 278.725C116.935 275.286 112.248 267.093 112.248 259.134C112.248 251.174 116.885 248.432 122.885 251.889C125.93 253.683 128.389 256.32 129.965 259.483V256.342L136.231 259.965V277.18C136.138 278.086 136.294 279 136.684 279.823C137.074 280.647 137.682 281.347 138.441 281.85C140.552 283.079 141.849 281.002 141.849 274.837C141.849 264.052 134.935 252.62 124.713 246.721C114.492 240.821 107.594 244.926 107.594 256.026C107.728 261.916 109.352 267.677 112.313 272.77C115.274 277.864 119.477 282.125 124.53 285.156C127.274 286.846 130.389 287.839 133.605 288.048L135.084 293.781C131.34 293.479 127.722 292.288 124.53 290.308C111.234 282.614 102.442 267.127 102.442 253.102C102.442 239.077 111.317 233.992 124.713 241.735C137.66 249.197 146.486 264.136 146.486 277.463ZM130.065 269.47C130.097 267.363 129.583 265.283 128.572 263.434C127.562 261.584 126.089 260.029 124.298 258.918C120.974 256.973 118.597 258.336 118.597 262.856C118.554 264.967 119.056 267.052 120.055 268.912C121.054 270.772 122.515 272.344 124.298 273.474C127.622 275.352 130.065 274.139 130.065 269.47Z" fill="#086BFF" fill-opacity="0.89"/>
<g opacity="0.9">
<path d="M146.486 277.463C146.486 286.984 142.713 290.225 137.062 286.951C135.503 286.064 134.14 284.87 133.055 283.442C131.969 282.014 131.184 280.382 130.746 278.642C129.084 280.686 126.508 280.819 122.885 278.725C116.935 275.286 112.248 267.093 112.248 259.134C112.248 251.174 116.885 248.432 122.885 251.889C125.93 253.683 128.389 256.32 129.965 259.483V256.342L136.231 259.965V277.18C136.138 278.086 136.294 279 136.684 279.823C137.074 280.647 137.682 281.347 138.441 281.85C140.552 283.079 141.849 281.002 141.849 274.837C141.849 264.052 134.935 252.62 124.713 246.721C114.492 240.821 107.594 244.926 107.594 256.026C107.728 261.916 109.352 267.677 112.313 272.77C115.274 277.864 119.477 282.125 124.53 285.156C127.274 286.846 130.389 287.839 133.605 288.048L135.084 293.781C131.34 293.479 127.722 292.288 124.53 290.308C111.234 282.614 102.442 267.127 102.442 253.102C102.442 239.077 111.317 233.992 124.713 241.735C137.66 249.197 146.486 264.136 146.486 277.463ZM130.065 269.47C130.097 267.363 129.583 265.283 128.572 263.434C127.562 261.584 126.089 260.029 124.298 258.918C120.974 256.973 118.597 258.336 118.597 262.856C118.554 264.967 119.056 267.052 120.055 268.912C121.054 270.772 122.515 272.344 124.298 273.474C127.622 275.352 130.065 274.139 130.065 269.47Z" fill="#6100FF"/>
</g>
<path d="M171.997 362.626L105.899 324.406C105.14 323.876 104.258 323.547 103.337 323.448C102.416 323.349 101.485 323.485 100.631 323.841C100.45 323.925 100.277 324.025 100.115 324.141L85.7389 332.566H85.8386C84.027 333.596 82.8802 335.989 82.8802 339.395V412.877C82.8802 419.108 86.653 426.32 91.3233 429.012L157.422 467.232C158.259 467.843 159.257 468.192 160.292 468.236C161.327 468.281 162.353 468.018 163.239 467.481L163.122 467.581L177.399 459.189C179.26 458.209 180.441 455.866 180.441 452.293V378.745C180.441 372.53 176.734 365.318 171.997 362.626Z" fill="#08E1FF"/>
<path d="M178.08 369.589C176.748 366.742 174.639 364.329 171.997 362.626L105.899 324.406C105.14 323.876 104.258 323.547 103.337 323.448C102.416 323.349 101.485 323.485 100.631 323.841C100.45 323.925 100.277 324.025 100.115 324.141L85.7389 332.566C86.6163 332.112 87.6019 331.909 88.5872 331.979C89.5725 332.05 90.5192 332.391 91.3233 332.964L157.422 371.184C160.154 372.97 162.317 375.502 163.654 378.479L178.08 369.589Z" fill="#086BFF" fill-opacity="0.89"/>
<path d="M165.865 460.785C165.865 464.108 164.801 466.418 163.122 467.515L177.399 459.123C179.26 458.142 180.441 455.799 180.441 452.227V378.745C180.37 375.552 179.562 372.418 178.08 369.589L163.654 378.463C165.039 381.208 165.794 384.228 165.865 387.303V460.785Z" fill="#086BFF" fill-opacity="0.89"/>
<path opacity="0.3" d="M178.08 369.589C176.748 366.742 174.639 364.329 171.997 362.626L105.899 324.406C105.14 323.876 104.258 323.547 103.337 323.448C102.416 323.349 101.485 323.485 100.631 323.841C100.45 323.925 100.277 324.025 100.115 324.141L85.7389 332.566C86.6163 332.112 87.6019 331.909 88.5872 331.979C89.5725 332.05 90.5192 332.391 91.3233 332.964L157.422 371.184C160.154 372.97 162.317 375.502 163.654 378.479L178.08 369.589Z" fill="#0077E4"/>
<path opacity="0.6" d="M165.865 460.785C165.865 464.108 164.801 466.418 163.122 467.515L177.399 459.123C179.26 458.142 180.441 455.799 180.441 452.227V378.745C180.37 375.552 179.562 372.418 178.08 369.589L163.654 378.463C165.039 381.208 165.794 384.228 165.865 387.303V460.785Z" fill="#004770"/>
<path d="M116.985 395.479L101.046 369.589V404.668L116.985 395.479Z" fill="#086BFF" fill-opacity="0.89"/>
<path d="M131.793 402.94L147.699 430.475V395.445L131.793 402.94Z" fill="#086BFF" fill-opacity="0.89"/>
<path d="M103.456 368.409L119.827 394.997C119.896 395.055 119.958 395.122 120.01 395.196C120.024 395.262 120.024 395.33 120.01 395.396L124.879 403.305L129.001 401.361C129.065 401.292 129.138 401.23 129.217 401.178C129.38 401.084 129.562 401.027 129.749 401.012L146.369 393.219L103.456 368.409Z" fill="#086BFF" fill-opacity="0.89"/>
<path d="M129.383 404.07L124.929 406.164C124.758 406.243 124.57 406.283 124.381 406.28C124.151 406.283 123.925 406.226 123.724 406.115C123.523 406.004 123.354 405.844 123.234 405.648L118.364 397.739L102.376 406.978L145.405 431.804L129.383 404.07Z" fill="#086BFF" fill-opacity="0.89"/>
<g opacity="0.9">
<path d="M116.985 395.479L101.046 369.589V404.668L116.985 395.479Z" fill="#6100FF"/>
<path d="M131.793 402.94L147.699 430.475V395.445L131.793 402.94Z" fill="#6100FF"/>
<path d="M103.456 368.409L119.827 394.997C119.896 395.055 119.958 395.122 120.01 395.196C120.024 395.262 120.024 395.33 120.01 395.396L124.879 403.305L129.001 401.361C129.065 401.292 129.138 401.23 129.217 401.178C129.38 401.084 129.562 401.027 129.749 401.012L146.369 393.219L103.456 368.409Z" fill="#6100FF"/>
<path d="M129.383 404.07L124.929 406.164C124.758 406.243 124.57 406.283 124.381 406.28C124.151 406.283 123.925 406.226 123.724 406.115C123.523 406.004 123.354 405.844 123.234 405.648L118.364 397.739L102.376 406.978L145.405 431.804L129.383 404.07Z" fill="#6100FF"/>
</g>
<path d="M171.997 100.871L105.899 62.6508C105.14 62.1207 104.258 61.791 103.337 61.6923C102.416 61.5935 101.485 61.7288 100.631 62.0858C100.45 62.1692 100.277 62.2693 100.115 62.3849L85.7389 70.8099H85.8386C84.027 71.8235 82.8802 74.233 82.8802 77.6396V151.121C82.8802 157.336 86.653 164.565 91.3233 167.257L157.422 205.476C158.259 206.087 159.257 206.436 160.292 206.481C161.327 206.525 162.353 206.262 163.239 205.726L163.122 205.809L177.399 197.5C179.26 196.52 180.441 194.177 180.441 190.604V116.939C180.441 110.725 176.734 103.496 171.997 100.871Z" fill="#08C4FF"/>
<path d="M178.08 107.783C176.748 104.932 174.64 102.514 171.997 100.804L105.899 62.6508C105.14 62.1207 104.258 61.791 103.337 61.6923C102.416 61.5935 101.485 61.7288 100.631 62.0858C100.45 62.1692 100.277 62.2693 100.115 62.3849L85.7389 70.8099C86.6163 70.3562 87.6019 70.1534 88.5872 70.2238C89.5725 70.2941 90.5192 70.6349 91.3233 71.2087L157.422 109.428C160.154 111.214 162.317 113.746 163.654 116.723L178.08 107.783Z" fill="#086BFF" fill-opacity="0.89"/>
<path d="M165.865 198.913C165.865 202.236 164.801 204.546 163.122 205.56L177.399 197.251C179.26 196.27 180.441 193.927 180.441 190.355V116.939C180.37 113.746 179.562 110.613 178.08 107.783L163.654 116.657C165.039 119.403 165.794 122.423 165.865 125.497V198.913Z" fill="#086BFF" fill-opacity="0.89"/>
<path opacity="0.3" d="M178.08 107.783C176.748 104.932 174.64 102.514 171.997 100.804L105.899 62.6508C105.14 62.1207 104.258 61.791 103.337 61.6923C102.416 61.5935 101.485 61.7288 100.631 62.0858C100.45 62.1692 100.277 62.2693 100.115 62.3849L85.7389 70.8099C86.6163 70.3562 87.6019 70.1534 88.5872 70.2238C89.5725 70.2941 90.5192 70.6349 91.3233 71.2087L157.422 109.428C160.154 111.214 162.317 113.746 163.654 116.723L178.08 107.783Z" fill="#6171FF"/>
<path opacity="0.6" d="M165.865 198.913C165.865 202.236 164.801 204.546 163.122 205.56L177.399 197.251C179.26 196.27 180.441 193.927 180.441 190.355V116.939C180.37 113.746 179.562 110.613 178.08 107.783L163.654 116.657C165.039 119.403 165.794 122.423 165.865 125.497V198.913Z" fill="#13005D"/>
<path d="M144.242 167.34C141.699 163.152 139.139 159.031 136.597 154.81C136.193 154.011 135.629 153.303 134.94 152.731C134.251 152.159 133.451 151.736 132.591 151.487C131.361 151.238 130.131 150.955 128.868 150.59C128.418 150.402 128.04 150.076 127.788 149.659C123.627 142.539 120.319 134.953 117.932 127.059C117.881 126.891 117.867 126.713 117.89 126.538C117.913 126.364 117.973 126.196 118.065 126.046C118.846 125.265 119.727 124.55 120.525 123.852C121.323 123.154 121.738 121.542 121.156 119.449C119.927 115.012 118.747 110.575 117.517 106.155C117.279 104.899 116.714 103.728 115.88 102.759C115.045 101.791 113.97 101.059 112.763 100.638C110.083 99.8929 107.238 99.9974 104.619 100.937C103.606 101.319 103.074 102.233 103.057 103.812C103.489 106.853 103.772 109.861 104.353 112.951C108.453 135.241 118.314 155.735 133.937 174.435C134.345 175.055 134.893 175.571 135.537 175.94C136.181 176.31 136.902 176.523 137.644 176.562C140.23 176.501 142.715 175.543 144.674 173.854C146.153 172.524 146.004 170.165 144.242 167.34Z" fill="#086BFF" fill-opacity="0.89"/>
<path d="M144.042 144.69C143.695 139.911 142.377 135.252 140.17 130.998C138.522 127.674 136.425 124.594 133.937 121.842C133.289 121.11 132.741 120.878 132.408 121.426C132.076 121.975 132.408 122.756 133.04 123.47L133.688 124.218C138.282 129.52 141.177 136.079 141.998 143.045C141.99 143.553 142.04 144.061 142.148 144.557C142.356 145.129 142.692 145.646 143.128 146.07C143.477 146.319 143.876 146.07 144.159 146.07C144.059 145.388 144.076 145.039 144.042 144.69Z" fill="#086BFF" fill-opacity="0.89"/>
<path d="M128.985 131.048C131.072 133.343 132.34 136.264 132.591 139.356C132.701 139.826 132.874 140.279 133.106 140.702C134.12 141.533 134.619 141.251 134.619 140.204C134.263 136.239 132.624 132.5 129.949 129.552C129.317 128.904 128.802 128.705 128.503 129.253C128.395 129.566 128.383 129.904 128.469 130.224C128.555 130.544 128.735 130.83 128.985 131.048Z" fill="#086BFF" fill-opacity="0.89"/>
<g opacity="0.9">
<path d="M144.242 167.34C141.699 163.152 139.139 159.031 136.597 154.81C136.193 154.011 135.629 153.303 134.94 152.731C134.251 152.159 133.451 151.736 132.591 151.487C131.361 151.238 130.131 150.955 128.868 150.59C128.418 150.402 128.04 150.076 127.788 149.659C123.627 142.539 120.319 134.953 117.932 127.059C117.881 126.891 117.867 126.713 117.89 126.538C117.913 126.364 117.973 126.196 118.065 126.046C118.846 125.265 119.727 124.55 120.525 123.852C121.323 123.154 121.738 121.542 121.156 119.449C119.927 115.012 118.747 110.575 117.517 106.155C117.279 104.899 116.714 103.728 115.88 102.759C115.045 101.791 113.97 101.059 112.763 100.638C110.083 99.8929 107.238 99.9974 104.619 100.937C103.606 101.319 103.074 102.233 103.057 103.812C103.489 106.853 103.772 109.861 104.353 112.951C108.453 135.241 118.314 155.735 133.937 174.435C134.345 175.055 134.893 175.571 135.537 175.94C136.181 176.31 136.902 176.523 137.644 176.562C140.23 176.501 142.715 175.543 144.674 173.854C146.153 172.524 146.004 170.165 144.242 167.34Z" fill="#6100FF"/>
<path d="M144.042 144.69C143.695 139.911 142.377 135.252 140.17 130.998C138.522 127.674 136.425 124.594 133.937 121.842C133.289 121.11 132.741 120.878 132.408 121.426C132.076 121.975 132.408 122.756 133.04 123.47L133.688 124.218C138.282 129.52 141.177 136.079 141.998 143.045C141.99 143.553 142.04 144.061 142.148 144.557C142.356 145.129 142.692 145.646 143.128 146.07C143.477 146.319 143.876 146.07 144.159 146.07C144.059 145.388 144.076 145.039 144.042 144.69Z" fill="#6100FF"/>
<path d="M128.985 131.048C131.072 133.343 132.34 136.264 132.591 139.356C132.701 139.826 132.874 140.279 133.106 140.702C134.12 141.533 134.619 141.251 134.619 140.204C134.263 136.239 132.624 132.5 129.949 129.552C129.317 128.904 128.802 128.705 128.503 129.253C128.395 129.566 128.383 129.904 128.469 130.224C128.555 130.544 128.735 130.83 128.985 131.048Z" fill="#6100FF"/>
</g>
<path d="M511.132 56.8014L526.705 65.6585V60.1415C526.705 59.7593 526.705 59.3605 526.705 58.9783C526.705 58.5961 526.705 58.2305 526.705 57.8649V57.6655C527.27 50.3705 532.804 47.5622 539.552 51.4673C542.607 53.3459 545.225 55.8558 547.231 58.8287C548.743 48.8584 556.837 45.3355 566.626 50.9688C577.496 57.2501 586.305 72.5712 586.305 85.0675V96.8657C586.289 97.8095 586.522 98.7408 586.98 99.5662C587.438 100.392 588.105 101.082 588.914 101.568L598.088 106.936C600.068 108.11 601.71 109.777 602.852 111.775C603.994 113.773 604.597 116.034 604.603 118.335C604.604 119.29 604.352 120.228 603.875 121.055C603.397 121.882 602.71 122.568 601.882 123.045C601.055 123.522 600.117 123.772 599.162 123.771C598.207 123.77 597.269 123.517 596.443 123.038L511.364 73.8674C509.107 72.5568 507.233 70.6786 505.926 68.4194C504.62 66.1602 503.928 63.5985 503.918 60.989C503.918 60.1443 504.139 59.3143 504.56 58.582C504.981 57.8498 505.588 57.2411 506.318 56.8169C507.049 56.3928 507.878 56.1681 508.723 56.1654C509.568 56.1627 510.398 56.382 511.132 56.8014Z" fill="#E6E6E6"/>
<path d="M629.849 54.4916L641.168 60.989V56.9344C641.168 56.6519 641.168 56.3694 641.168 56.0869C641.168 55.8044 641.168 55.5385 641.168 55.2726V55.1729C641.583 49.872 645.605 47.8281 650.508 50.6696C652.728 52.0298 654.632 53.8484 656.093 56.0038C657.206 48.7919 663.09 46.183 670.203 50.2874C678.114 54.8572 684.513 65.9576 684.513 75.0805V83.6716C684.519 84.3451 684.7 85.0054 685.038 85.588C685.376 86.1706 685.859 86.6555 686.441 86.9951L693.089 90.9001C694.536 91.7507 695.734 92.9653 696.565 94.4231C697.396 95.8808 697.831 97.5308 697.826 99.2088C697.825 99.896 697.645 100.571 697.303 101.168C696.962 101.764 696.47 102.261 695.878 102.61C695.286 102.959 694.613 103.147 693.926 103.157C693.239 103.167 692.561 102.997 691.959 102.665L630.016 66.9047C628.374 65.9553 627.011 64.5913 626.063 62.9493C625.115 61.3074 624.615 59.4451 624.614 57.5492C624.613 56.9356 624.773 56.3324 625.078 55.7999C625.383 55.2674 625.822 54.8243 626.352 54.5148C626.882 54.2053 627.484 54.0403 628.098 54.0362C628.711 54.0321 629.315 54.1892 629.849 54.4916Z" fill="#E6E6E6"/>
</g>
<defs>
<filter id="filter0_d_169_889" x="0" y="0" width="759" height="865" filterUnits="userSpaceOnUse" color-interpolation-filters="sRGB">
<feFlood flood-opacity="0" result="BackgroundImageFix"/>
<feColorMatrix in="SourceAlpha" type="matrix" values="0 0 0 0 0 0 0 0 0 0 0 0 0 0 0 0 0 0 127 0" result="hardAlpha"/>
<feMorphology radius="12" operator="erode" in="SourceAlpha" result="effect1_dropShadow_169_889"/>
<feOffset dy="32"/>
<feGaussianBlur stdDeviation="32"/>
<feColorMatrix type="matrix" values="0 0 0 0 0.0625882 0 0 0 0 0.0926346 0 0 0 0 0.15702 0 0 0 0.14 0"/>
<feBlend mode="normal" in2="BackgroundImageFix" result="effect1_dropShadow_169_889"/>
<feBlend mode="normal" in="SourceGraphic" in2="effect1_dropShadow_169_889" result="shape"/>
</filter>
</defs>
</svg>
