<svg width="29" height="29" viewBox="0 0 29 29" fill="none" xmlns="http://www.w3.org/2000/svg">
<g id="Frame 831">
<path id="&#239;&#138;&#160;" d="M16.2047 0.42424V2.35268C18.1121 2.35268 19.899 2.83479 21.5654 3.799C23.1516 4.74314 24.4165 6.00867 25.3601 7.59561C26.3238 9.26291 26.8057 11.0507 26.8057 12.9591H28.7332C28.7332 10.6891 28.1609 8.57992 27.0165 6.6314C25.9122 4.74314 24.4165 3.24659 22.5292 2.14175C20.5816 0.996745 18.4735 0.42424 16.2047 0.42424ZM6.23611 3.3169C5.69401 3.3169 5.22219 3.48764 4.82064 3.82914L1.71863 6.99298L1.80898 6.93271C1.30704 7.35456 0.97576 7.87685 0.815138 8.49957C0.674594 9.12229 0.71475 9.72493 0.935604 10.3075C1.49778 11.8743 2.25069 13.4814 3.19434 15.1286C4.51947 17.3985 6.09557 19.4374 7.92264 21.2453C10.854 24.1983 14.4981 26.5284 18.8549 28.2359H18.8851C19.4673 28.4368 20.0496 28.477 20.6318 28.3564C21.2341 28.2359 21.7662 27.9748 22.228 27.573L25.2698 24.5297C25.6713 24.1279 25.8721 23.6358 25.8721 23.0532C25.8721 22.4506 25.6713 21.9484 25.2698 21.5467L21.3245 17.5693C20.9229 17.1675 20.421 16.9666 19.8187 16.9666C19.2163 16.9666 18.7144 17.1675 18.3128 17.5693L16.4155 19.4977C14.8896 18.7745 13.5645 17.8806 12.4401 16.816C11.3158 15.7312 10.4223 14.4155 9.75975 12.8687L11.6872 10.9402C12.1088 10.4983 12.3196 9.97603 12.3196 9.37339C12.3196 8.75067 12.0787 8.24847 11.5969 7.8668L11.6872 7.9572L7.65159 3.82914C7.25003 3.48764 6.77821 3.3169 6.23611 3.3169ZM16.2047 4.28111V6.20955C17.4294 6.20955 18.5538 6.51087 19.5777 7.11351C20.6218 7.71614 21.445 8.53975 22.0473 9.58432C22.6496 10.6088 22.9508 11.7337 22.9508 12.9591H24.8782C24.8782 11.3922 24.4867 9.93585 23.7037 8.58996C22.9207 7.28425 21.8766 6.23968 20.5716 5.45626C19.2264 4.67283 17.7707 4.28111 16.2047 4.28111ZM6.23611 5.24533C6.29635 5.24533 6.36662 5.27546 6.44693 5.33573L10.3922 9.37339C10.4123 9.45374 10.3922 9.52405 10.332 9.58432L7.47089 12.4167L7.6817 13.0193L8.07322 13.863C8.39446 14.546 8.7659 15.2089 9.18753 15.8517C9.76978 16.7557 10.4123 17.5291 11.115 18.1719C12.0586 19.0959 13.193 19.9396 14.5182 20.703C15.1807 21.0846 15.7429 21.3659 16.2047 21.5467L16.807 21.8178L19.7283 18.8951C19.7685 18.8549 19.7986 18.8348 19.8187 18.8348C19.8387 18.8348 19.8689 18.8549 19.909 18.8951L23.9747 22.9628C24.0149 23.003 24.035 23.0332 24.035 23.0532C24.035 23.0532 24.0149 23.0733 23.9747 23.1135L20.9631 26.0966C20.5214 26.4782 20.0395 26.5787 19.5175 26.3979C15.4217 24.8109 12.0084 22.6414 9.27788 19.8894C7.59136 18.202 6.11565 16.2836 4.85075 14.1342C3.94726 12.5875 3.24454 11.0909 2.7426 9.64458V9.61445C2.66228 9.43366 2.65225 9.22273 2.71248 8.98168C2.77271 8.72054 2.88314 8.51966 3.04376 8.37904L6.0253 5.33573C6.08553 5.27546 6.1558 5.24533 6.23611 5.24533ZM16.2047 8.13799V10.0664C17.0078 10.0664 17.6904 10.3477 18.2526 10.9101C18.8148 11.4726 19.0959 12.1556 19.0959 12.9591H21.0233C21.0233 12.0953 20.8025 11.2918 20.3608 10.5485C19.9391 9.80528 19.3569 9.22273 18.614 8.80089C17.8711 8.35895 17.068 8.13799 16.2047 8.13799Z" fill="black"/>
</g>
</svg>
