<svg width="99" height="52" viewBox="0 0 99 52" fill="none" xmlns="http://www.w3.org/2000/svg">
<g id="Social media icons">
<path id="Vector" d="M27.0001 25.6546C27.0001 11.4825 20.9578 0 13.5001 0C6.04237 0 0 11.4825 0 25.6546C0 38.4591 4.93678 49.0727 11.3907 50.9988V33.0706H7.96123V25.6546H11.3907V20.0023C11.3907 13.5731 13.4048 10.0218 16.4897 10.0218C17.9671 10.0218 19.5119 10.5225 19.5119 10.5225V16.8327H17.8092C16.1326 16.8327 15.6094 18.8106 15.6094 20.8392V25.6546H19.3535L18.7547 33.0706H15.6094V50.9988C22.0633 49.0727 27.0001 38.4591 27.0001 25.6546Z" fill="#0011D3"/>
<path id="Vector_2" d="M57.5244 8.85289C55.2435 4.50816 52.206 2.11856 48.978 2.11856C42.315 2.11856 36.8932 12.4218 36.8932 25.0836C36.8932 29.1283 37.4485 33.0799 38.5045 36.566L36.7898 48.4623L43.1969 45.2658C44.9606 47.0968 46.9475 48.0589 48.9725 48.0589H48.978C55.6354 48.0589 61.177 37.7557 61.177 25.0939C61.177 18.9596 59.8052 13.1976 57.5244 8.85289ZM48.978 44.19C47.1707 44.19 45.4015 43.2693 43.861 41.5314L43.4963 41.1177L39.6967 43.0107L40.7092 35.9661L40.4697 35.2419C39.4626 32.2006 38.9346 28.6938 38.9346 25.0836C38.9346 14.5631 43.4418 5.99778 48.9834 5.99778C51.6671 5.99778 54.1875 7.98394 56.0818 11.5942C57.9762 15.2045 59.1411 19.994 59.1357 25.0939C59.1357 35.6247 54.5141 44.19 48.978 44.19ZM54.4869 29.8938C54.1875 29.6041 52.7014 28.218 52.4237 28.0318C52.1461 27.8352 51.9447 27.7421 51.7433 28.3214C51.5419 28.9007 50.9649 30.1834 50.7852 30.5765C50.611 30.9593 50.4314 31.011 50.132 30.7214C48.3574 29.0352 47.1925 27.7111 46.0221 23.8939C45.7118 22.8802 46.3324 22.9526 46.9094 20.7595C47.0074 20.3768 46.9584 20.0457 46.8822 19.7561C46.806 19.4664 46.2017 16.6424 45.9513 15.4941C45.7064 14.3769 45.456 14.5321 45.2709 14.5114C45.0967 14.4907 44.8953 14.4907 44.6939 14.4907C44.4925 14.4907 44.1658 14.6355 43.8882 15.2045C43.6106 15.7838 42.8322 17.1699 42.8322 19.994C42.8322 22.8181 43.9154 25.5491 44.0624 25.9318C44.2148 26.3146 46.1908 32.1075 49.2229 34.6006C51.1391 36.173 51.8903 36.3074 52.8483 36.0385C53.4308 35.873 54.6338 34.6523 54.8842 33.3075C55.1346 31.9627 55.1346 30.8145 55.0584 30.5765C54.9877 30.3179 54.7862 30.1731 54.4869 29.8938Z" fill="#0011D3"/>
<path id="Vector_3" d="M84.8502 0C77.3925 0 71.3501 11.4825 71.3501 25.6546C71.3501 39.8267 77.3925 51.3092 84.8502 51.3092C92.3079 51.3092 98.3502 39.8267 98.3502 25.6546C98.3502 11.4825 92.3079 0 84.8502 0ZM91.4804 17.5755L89.2649 37.4164C89.1016 38.8233 88.6607 39.1646 88.0455 38.5026L84.6705 33.7751L83.0429 36.7543C82.8633 37.0957 82.7108 37.3854 82.3624 37.3854L82.602 30.8579L88.8566 20.1202C89.1288 19.6651 88.7967 19.4065 88.4375 19.8616L80.7076 29.1097L77.3761 27.1339C76.6521 26.6994 76.6358 25.758 77.5286 25.096L90.5441 15.5583C91.1484 15.1445 91.6764 15.8376 91.4804 17.5755Z" fill="#0012DA"/>
</g>
</svg>
