<svg width="40" height="41" viewBox="0 0 40 41" fill="none" xmlns="http://www.w3.org/2000/svg">
<g id="tick-square_svgrepo.com">
<path id="Vector" opacity="0.4" d="M26.983 3.83331H13.0163C6.94967 3.83331 3.33301 7.44998 3.33301 13.5166V27.4666C3.33301 33.55 6.94967 37.1666 13.0163 37.1666H26.9663C33.033 37.1666 36.6497 33.55 36.6497 27.4833V13.5166C36.6663 7.44998 33.0497 3.83331 26.983 3.83331Z" fill="#0091EA"/>
<path id="Vector_2" d="M17.6325 26.4668C17.2992 26.4668 16.9825 26.3335 16.7492 26.1002L12.0324 21.3835C11.5491 20.9002 11.5491 20.1002 12.0324 19.6168C12.5158 19.1335 13.3158 19.1335 13.7991 19.6168L17.6325 23.4502L26.1992 14.8835C26.6825 14.4002 27.4825 14.4002 27.9658 14.8835C28.4492 15.3668 28.4492 16.1668 27.9658 16.6502L18.5158 26.1002C18.2825 26.3335 17.9658 26.4668 17.6325 26.4668Z" fill="#0091EA"/>
</g>
</svg>
